<?xml version="1.0" standalone="no"?>
<!DOCTYPE svg PUBLIC "-//W3C//DTD SVG 20010904//EN"
 "http://www.w3.org/TR/2001/REC-SVG-20010904/DTD/svg10.dtd">
<svg version="1.0" xmlns="http://www.w3.org/2000/svg"
 width="300.000000pt" height="239.000000pt" viewBox="0 0 300.000000 239.000000"
 preserveAspectRatio="xMidYMid meet">
<metadata>
Created by potrace 1.10, written by Peter Selinger 2001-2011
</metadata>
<g transform="translate(0.000000,239.000000) scale(0.100000,-0.100000)"
fill="#000000" stroke="none">
<path d="M1381 2275 c-17 -20 -31 -42 -31 -50 0 -22 -9 -18 -32 10 -24 31 -69
55 -102 55 -13 0 -38 -12 -55 -26 -26 -22 -31 -33 -31 -72 0 -26 9 -64 20 -88
20 -40 199 -224 218 -224 5 0 27 21 47 46 l38 46 42 -48 42 -48 39 29 c73 56
157 150 182 203 39 87 19 162 -49 177 -38 8 -96 -20 -120 -58 l-18 -30 -6 26
c-11 43 -69 87 -114 87 -32 0 -44 -6 -70 -35z m96 5 c42 -15 57 -48 49 -107
-9 -68 -50 -145 -110 -210 l-52 -56 -81 77 c-137 129 -173 244 -87 277 35 13
89 -14 117 -57 23 -35 37 -43 38 -21 0 6 7 -13 15 -43 17 -61 68 -148 78 -131
4 5 -7 34 -23 63 -52 92 -50 187 3 208 12 5 21 9 22 9 1 1 15 -4 31 -9z m255
-37 c23 -21 24 -82 1 -131 -9 -21 -54 -75 -100 -121 l-84 -84 -38 37 -38 38
38 74 c23 44 39 91 40 112 1 20 3 29 6 20 2 -10 6 -18 7 -18 2 0 24 20 48 45
50 49 87 58 120 28z"/>
<path d="M2070 2156 c0 -24 -23 -56 -41 -56 -19 0 -8 -19 14 -22 15 -2 22 -10
22 -25 0 -34 13 -38 25 -8 6 15 19 29 30 32 25 7 25 14 0 36 -11 9 -20 28 -20
42 0 16 -6 25 -15 25 -9 0 -15 -9 -15 -24z m30 -70 c-5 -5 -16 -6 -25 -3 -13
5 -13 10 -3 26 11 18 13 18 24 3 7 -10 9 -21 4 -26z"/>
<path d="M1868 1848 c-7 -22 -22 -46 -33 -52 -11 -6 -22 -12 -24 -13 -2 -2 8
-12 22 -23 14 -11 28 -34 32 -50 7 -33 25 -41 25 -11 0 24 37 71 56 71 8 0 14
5 14 10 0 6 -6 10 -14 10 -20 0 -46 39 -46 67 0 39 -18 34 -32 -9z m33 -85
c-20 -28 -23 -28 -39 -3 -10 17 -10 24 5 44 l17 23 17 -21 c15 -19 15 -22 0
-43z"/>
<path d="M1016 1768 c-2 -7 -7 -26 -10 -41 -4 -16 -17 -32 -31 -39 -31 -14
-31 -20 -3 -33 13 -6 27 -24 32 -42 10 -37 26 -44 26 -12 0 11 14 35 31 52 18
18 27 33 20 35 -22 7 -41 34 -41 57 0 27 -18 44 -24 23z m18 -113 l-17 -26
-12 23 c-9 18 -8 28 3 46 15 22 15 22 29 3 12 -18 12 -24 -3 -46z"/>
<path d="M1459 1655 c-12 -31 -14 -33 -29 -20 -28 25 -43 19 -37 -14 6 -29 6
-29 -21 -15 -35 18 -50 3 -29 -29 16 -24 15 -25 -14 -31 -38 -7 -40 -36 -1
-36 23 -1 24 -2 10 -11 -15 -8 -18 -24 -18 -89 l0 -78 -32 -7 c-57 -12 -60
-19 -57 -134 l3 -105 -47 -12 c-77 -20 -77 -19 -77 -170 0 -112 -2 -134 -15
-134 -8 0 -33 -7 -55 -16 -51 -21 -62 -58 -59 -202 l3 -106 -30 -9 c-101 -33
-100 -131 3 -174 127 -52 350 -78 608 -70 262 9 422 42 495 104 57 47 28 134
-50 149 l-30 6 0 138 c0 154 0 153 -72 175 l-43 12 -3 128 c-1 75 -7 134 -14
142 -6 7 -35 20 -64 29 l-54 15 0 110 0 109 -44 12 -43 11 1 71 c0 39 -3 79
-8 89 -6 12 -4 17 7 17 28 0 29 20 1 30 -21 8 -24 14 -16 22 22 22 14 41 -16
36 -26 -4 -28 -2 -24 24 5 33 -21 39 -40 9 -9 -16 -14 -17 -25 -6 -7 8 -17 25
-23 39 -13 35 -26 33 -41 -9z m27 -32 c-11 -11 -19 6 -11 24 8 17 8 17 12 0 3
-10 2 -21 -1 -24z m-46 -24 c0 -5 -7 -9 -15 -9 -9 0 -15 9 -15 21 0 18 2 19
15 9 8 -7 15 -16 15 -21z m130 11 c0 -11 -7 -20 -15 -20 -13 0 -14 4 -5 20 6
11 13 20 15 20 3 0 5 -9 5 -20z m-51 -14 c9 -10 9 -20 0 -40 -15 -32 -32 -33
-52 -3 -16 25 -12 40 13 50 23 9 27 8 39 -7z m-134 -15 c10 -17 -12 -21 -25
-6 -10 12 -10 15 3 15 9 0 18 -4 22 -9z m65 -32 c7 -11 9 -27 6 -35 -3 -8 -1
-14 3 -14 5 0 11 6 14 13 3 9 10 9 31 -3 15 -8 23 -16 16 -18 -21 -7 -120 9
-115 19 3 5 -1 6 -9 3 -11 -4 -16 0 -16 13 0 42 51 59 70 22z m135 -14 c0 -17
7 -33 15 -37 8 -5 -1 -5 -20 -2 -51 9 -64 24 -44 52 22 32 49 25 49 -13z
m-220 -5 c3 -5 -3 -10 -15 -10 -12 0 -18 5 -15 10 3 6 10 10 15 10 5 0 12 -4
15 -10z m265 -79 c0 -23 -1 -23 -18 -8 -25 23 -49 21 -62 -3 -6 -11 -16 -20
-23 -20 -7 0 -18 9 -25 20 -12 20 -46 27 -56 12 -6 -10 -32 -8 -59 3 -10 4
-24 2 -32 -5 -12 -10 -15 -9 -15 6 0 18 10 19 145 19 l145 0 0 -24z m-25 -21
c10 -11 16 -22 13 -25 -3 -3 -49 -8 -103 -12 l-98 -6 19 26 c23 32 49 34 64 7
14 -27 35 -25 57 5 22 30 25 30 48 5z m-207 -10 c11 -19 10 -20 -23 -20 -38 0
-41 4 -22 25 17 20 30 18 45 -5z m229 -45 c-9 -25 -265 -27 -286 -1 -7 8 31
11 140 11 95 0 148 -4 146 -10z m3 -51 c0 -25 -36 -34 -145 -34 -109 0 -145 9
-145 34 0 20 4 21 145 21 141 0 145 -1 145 -21z m-303 -25 c5 -5 32 -14 59
-18 l49 -9 -43 -1 c-57 -1 -138 19 -120 30 18 12 42 11 55 -2z m372 2 c16 -10
-71 -32 -122 -30 -28 1 -26 2 13 10 25 5 46 13 48 19 4 12 42 13 61 1z m-349
-43 c76 -12 293 -5 333 11 26 10 27 10 27 -26 l0 -37 -20 22 c-28 30 -45 28
-72 -8 -27 -37 -41 -37 -80 -5 -38 32 -50 32 -92 -6 -37 -32 -48 -31 -79 7
-29 37 -55 40 -88 8 l-29 -28 0 43 c0 37 2 42 18 36 9 -4 46 -11 82 -17z m168
5 c-16 -2 -40 -2 -55 0 -16 2 -3 4 27 4 30 0 43 -2 28 -4z m-161 -63 c34 -38
76 -40 99 -5 9 14 26 25 38 25 12 0 32 -11 44 -25 29 -33 57 -32 84 5 12 17
26 30 32 30 11 0 56 -40 56 -50 0 -4 -34 -13 -75 -20 -74 -13 -293 -9 -357 6
-28 6 -39 24 -15 24 7 0 18 9 25 20 17 28 37 25 69 -10z m-2 -62 c77 -11 271
-5 323 11 28 8 32 7 32 -9 0 -27 -23 -32 -179 -38 -177 -6 -281 9 -281 40 0
15 4 18 18 13 9 -4 49 -11 87 -17z m170 -55 c77 3 150 8 163 12 19 7 22 4 22
-23 0 -29 -3 -31 -57 -43 -73 -16 -282 -14 -348 3 -45 12 -50 16 -53 44 l-3
31 68 -14 c49 -11 108 -13 208 -10z m-285 -38 c0 -29 71 -40 250 -40 185 1
228 9 237 45 6 24 7 24 68 4 43 -15 46 -18 31 -30 -57 -41 -461 -55 -609 -21
-85 20 -94 34 -31 52 43 13 54 11 54 -10z m109 -76 c142 -14 357 -2 444 25
l47 14 0 -32 c0 -27 -4 -32 -21 -32 -15 1 -24 -8 -33 -33 -15 -45 -31 -49 -51
-12 -8 17 -24 35 -36 41 -27 15 -46 -1 -70 -58 -15 -35 -23 -43 -41 -40 -14 2
-25 14 -31 33 -14 44 -26 55 -58 55 -31 0 -52 -17 -74 -61 -9 -16 -20 -29 -25
-29 -14 0 -40 30 -40 47 0 23 -30 53 -51 53 -11 0 -30 -17 -44 -40 -14 -23
-30 -38 -34 -36 -5 3 -14 26 -20 51 -13 53 -34 58 -69 18 -16 -19 -22 -22 -18
-10 3 10 6 34 6 52 l0 33 46 -14 c25 -7 103 -19 173 -25z m-150 -74 c10 -42
14 -46 38 -43 17 2 32 14 43 33 21 38 51 39 61 2 17 -62 64 -77 96 -31 50 73
68 77 94 26 9 -17 23 -39 30 -48 13 -16 2 -17 -146 -11 -155 5 -249 22 -283
50 -12 9 -11 13 0 21 8 6 20 21 27 34 16 30 26 22 40 -33z m520 -1 c27 -45 59
-44 80 4 17 37 35 37 39 0 4 -30 -12 -37 -136 -63 -93 -19 -99 -19 -80 3 9 9
23 34 31 55 20 46 39 47 66 1z m-494 -72 c89 -24 427 -24 510 0 33 10 71 20
83 24 21 6 23 4 20 -17 -5 -37 -113 -59 -318 -66 -172 -6 -282 7 -363 41 -42
17 -54 54 -14 41 12 -4 49 -14 82 -23z m-49 -46 c141 -49 512 -44 647 9 14 6
17 1 17 -29 0 -34 -2 -36 -52 -51 -98 -28 -160 -35 -303 -35 -184 0 -355 31
-355 64 0 6 -3 21 -6 34 -7 26 0 27 52 8z m757 -43 c15 -7 27 -18 27 -23 0
-18 -46 -40 -126 -61 -229 -60 -824 -15 -824 62 0 11 60 39 85 39 8 0 15 -8
15 -18 0 -21 46 -45 120 -62 25 -6 122 -14 215 -17 146 -4 184 -2 268 15 108
23 147 42 147 73 0 22 18 20 73 -8z m-908 -63 c23 -37 349 -75 580 -67 153 6
282 30 332 62 12 8 24 15 25 15 2 0 3 -29 4 -65 1 -70 -16 -88 -38 -41 -13 29
-37 41 -52 26 -6 -6 -15 -28 -21 -48 -14 -49 -47 -56 -69 -14 -28 54 -65 48
-99 -13 -30 -54 -57 -57 -93 -10 -52 68 -89 69 -126 4 -29 -51 -53 -51 -74 1
-24 60 -58 65 -100 16 -38 -44 -52 -43 -68 3 -6 19 -19 39 -29 45 -19 11 -18
12 -78 -62 -16 -19 -35 1 -44 44 -7 42 -29 53 -55 29 -20 -18 -20 -17 -20 33
0 48 10 66 25 42z m35 -114 c9 -41 9 -41 -32 -20 l-30 16 23 24 c26 28 28 27
39 -20z m854 10 c15 -23 14 -25 -14 -35 -32 -11 -35 -6 -24 37 8 28 18 28 38
-2z m-716 -8 c5 -7 13 -23 16 -35 6 -20 4 -23 -18 -23 -13 0 -31 3 -40 6 -14
5 -14 9 0 35 16 32 26 36 42 17z m568 -23 c9 -14 15 -27 13 -29 -2 -2 -23 -6
-46 -9 -41 -5 -42 -4 -32 16 28 54 41 58 65 22z m-391 -16 c9 -17 15 -32 13
-33 -2 -1 -26 0 -55 2 l-52 4 21 29 c28 37 53 37 73 -2z m190 5 c14 -15 25
-31 25 -35 0 -5 -27 -9 -60 -9 -33 0 -60 3 -60 6 0 15 43 64 56 64 8 0 26 -12
39 -26z m-350 -44 c169 -19 406 -21 498 -3 43 8 89 12 102 9 13 -3 26 -2 30 3
4 8 101 41 119 41 3 0 6 -11 6 -25 0 -21 -8 -27 -72 -46 -267 -79 -650 -76
-859 8 -29 11 -39 21 -39 38 l0 22 53 -18 c28 -9 102 -23 162 -29z m-105 -55
c81 -25 248 -45 364 -45 116 0 317 28 406 55 45 15 84 25 86 22 2 -2 1 -21 -4
-43 -7 -36 -11 -39 -67 -57 -134 -40 -229 -50 -450 -44 -155 4 -234 11 -303
26 -118 25 -142 40 -142 87 0 31 3 35 18 29 9 -5 51 -18 92 -30z m936 -20 c24
-19 27 -27 18 -42 -17 -29 -95 -63 -201 -86 -88 -19 -128 -21 -388 -21 -261 0
-299 2 -382 21 -168 40 -234 91 -163 128 36 19 61 19 54 2 -25 -65 212 -117
534 -117 161 0 281 16 390 53 65 21 67 23 70 58 4 42 19 43 68 4z m-946 -146
c123 -26 435 -37 605 -20 151 15 284 46 330 76 41 28 48 16 7 -13 -44 -32
-148 -61 -277 -78 -137 -18 -515 -15 -620 6 -113 22 -195 51 -228 80 l-32 29
60 -30 c33 -16 103 -39 155 -50z"/>
<path d="M1395 1221 c-6 -11 9 -23 19 -14 9 9 7 23 -3 23 -6 0 -12 -4 -16 -9z"/>
<path d="M1750 925 c0 -8 5 -15 10 -15 6 0 10 7 10 15 0 8 -4 15 -10 15 -5 0
-10 -7 -10 -15z"/>
<path d="M1380 900 c0 -5 7 -10 15 -10 8 0 15 5 15 10 0 6 -7 10 -15 10 -8 0
-15 -4 -15 -10z"/>
<path d="M1100 575 c0 -8 5 -15 10 -15 6 0 10 7 10 15 0 8 -4 15 -10 15 -5 0
-10 -7 -10 -15z"/>
<path d="M1250 555 c0 -8 5 -15 10 -15 6 0 10 7 10 15 0 8 -4 15 -10 15 -5 0
-10 -7 -10 -15z"/>
<path d="M1417 544 c-8 -8 1 -24 14 -24 5 0 9 7 9 15 0 15 -12 20 -23 9z"/>
<path d="M1626 543 c-11 -11 -6 -23 9 -23 8 0 15 4 15 9 0 13 -16 22 -24 14z"/>
<path d="M2425 651 c-10 -33 -15 -67 -12 -75 8 -21 0 -20 -30 4 -32 25 -63 26
-63 2 0 -18 25 -59 46 -77 9 -7 3 -18 -22 -41 -29 -27 -34 -29 -34 -12 0 10
-6 31 -14 46 -23 44 -114 122 -143 122 -18 0 -6 -83 20 -140 11 -25 26 -60 32
-77 12 -31 11 -33 -9 -33 -24 0 -66 -26 -66 -40 0 -13 65 -29 92 -23 19 4 17
-1 -14 -29 -41 -36 -77 -107 -78 -150 l0 -27 61 35 c33 18 63 34 65 34 2 0 4
-15 4 -33 0 -89 125 -127 184 -56 21 25 27 28 32 14 9 -22 57 -45 95 -45 45 0
99 56 99 103 0 35 1 36 29 26 16 -6 50 -9 75 -7 l46 3 -46 53 c-25 28 -40 52
-32 52 18 0 137 53 138 62 0 14 -79 48 -112 48 -18 0 -51 7 -74 16 -41 16 -42
16 -28 42 14 27 19 82 8 82 -3 0 -15 -5 -26 -11 -19 -10 -20 -9 -15 13 14 53
20 138 10 138 -21 0 -103 -82 -115 -115 -16 -46 -24 -44 -20 4 4 41 -37 151
-56 151 -5 0 -17 -27 -27 -59z m16 -64 c-13 -13 -15 24 -3 63 6 22 7 21 10
-14 2 -21 -1 -43 -7 -49z m47 -22 l0 -50 -9 40 c-5 22 -11 58 -14 80 l-5 40
14 -30 c9 -16 15 -52 14 -80z m138 7 c-10 -55 -37 -112 -54 -112 -11 0 -12 3
-2 15 6 8 9 18 6 24 -3 5 5 29 19 53 14 23 25 50 25 58 0 8 -14 -9 -30 -39
-36 -65 -36 -65 -49 -57 -15 10 5 55 42 94 26 27 32 30 40 16 5 -8 6 -32 3
-52z m-371 -43 c26 -31 29 -54 7 -54 -7 0 -30 27 -52 60 -22 33 -40 56 -40 52
0 -13 31 -69 56 -103 36 -47 29 -89 -8 -46 -34 38 -68 139 -52 155 9 9 56 -26
89 -64z m127 31 c16 -12 26 -30 26 -47 l0 -27 -34 37 c-49 53 -44 78 8 37z
m85 -26 l-6 -34 50 0 c27 0 49 -5 49 -10 0 -14 -45 -30 -78 -29 l-27 1 25 8
c14 4 18 9 10 9 -20 2 -60 36 -60 51 0 6 5 20 11 31 15 29 32 12 26 -27z m203
-31 c0 -4 -9 -26 -21 -50 -17 -35 -24 -41 -35 -32 -20 17 -17 37 11 64 23 24
45 33 45 18z m-256 -38 c6 -17 -24 -39 -68 -49 -27 -7 -28 -6 -16 11 20 26 53
53 66 53 7 0 14 -7 18 -15z m-114 -33 c0 -43 -6 -53 -26 -45 -13 5 -12 25 2
71 8 27 24 10 24 -26z m164 2 c9 -24 -4 -88 -16 -76 -12 12 -28 79 -20 86 11
11 30 6 36 -10z m112 5 c13 -21 -11 -27 -35 -8 l-23 19 25 0 c14 0 29 -5 33
-11z m-50 -15 c18 -15 18 -15 -10 -9 -24 5 -27 4 -19 -7 7 -9 5 -21 -9 -43
l-19 -30 7 40 c4 22 7 46 7 53 0 17 19 15 43 -4z m-115 -6 c0 -2 2 -22 5 -45
l6 -42 -31 12 -31 11 21 22 c12 13 18 27 14 33 -3 6 -1 11 4 11 6 0 11 -1 12
-2z m-162 -34 c3 -16 1 -17 -13 -5 -19 16 -21 34 -3 29 6 -3 14 -13 16 -24z
m108 -9 c-30 -27 -56 -33 -53 -12 4 26 18 37 49 37 l32 -1 -28 -24z m221 5 c7
-11 19 -20 28 -20 12 0 14 -7 9 -32 -14 -66 -35 -67 -35 -2 0 41 -2 45 -20 40
-11 -3 -29 -9 -40 -12 -24 -6 -26 8 -4 30 21 22 47 20 62 -4z m110 14 c12 -4
22 -10 22 -14 0 -14 -61 -23 -73 -11 -8 8 -7 11 4 11 12 0 12 2 -1 10 -12 8
-12 10 5 10 11 0 30 -3 43 -6z m145 -33 c4 -4 -27 -11 -70 -14 -43 -4 -90 -10
-105 -13 -18 -4 -28 -2 -28 5 0 6 12 11 28 11 15 1 41 7 57 15 30 14 102 12
118 -4z m-588 -21 c0 -18 -27 -24 -63 -15 -26 6 -27 7 -7 21 25 18 70 14 70
-6z m225 -27 c0 -21 -35 -7 -38 16 -3 20 -2 21 17 9 12 -7 21 -18 21 -25z m93
17 c-6 -21 -51 -55 -61 -46 -6 7 47 66 59 66 4 0 5 -9 2 -20z m-223 -15 c19
-20 20 -25 8 -25 -9 0 -25 -3 -35 -6 -13 -4 -14 -3 -5 3 10 8 10 12 -3 23 -12
10 -15 10 -15 -3 0 -8 -9 -25 -20 -38 l-20 -24 2 40 c2 32 7 39 21 37 9 -2 17
2 17 8 0 18 26 11 50 -15z m45 11 c19 -8 35 -18 35 -21 0 -3 -4 -3 -10 0 -5 3
-10 1 -10 -4 0 -6 7 -11 15 -11 8 0 15 -5 15 -10 0 -17 -62 13 -78 38 -17 26
-13 27 33 8z m124 -12 c-13 -14 -25 -20 -27 -14 -7 20 7 40 29 40 l22 0 -24
-26z m296 5 c-42 -19 -189 -28 -169 -10 12 12 107 29 164 29 l45 0 -40 -19z
m-112 -43 c35 -15 98 -76 78 -76 -7 0 -10 -4 -7 -9 3 -5 -15 -4 -41 0 -33 7
-54 18 -69 37 -12 15 -21 29 -19 31 2 2 30 -11 61 -28 32 -17 59 -29 62 -27 6
7 -101 66 -120 66 -10 0 -18 5 -18 10 0 14 35 12 73 -4z m-497 -75 c-60 -62
-40 -56 31 8 73 66 101 80 59 30 -14 -17 -26 -34 -26 -37 0 -4 -21 -20 -46
-36 -55 -35 -73 -26 -51 27 9 19 26 46 39 59 21 21 23 21 26 4 2 -11 -11 -33
-32 -55z m193 56 c-18 -13 -39 -50 -39 -66 0 -16 43 -13 66 4 27 21 31 19 38
-20 23 -119 -150 -158 -180 -40 -15 61 38 135 98 135 28 -1 31 -2 17 -13z
m227 -8 c48 -39 48 -131 1 -164 -32 -22 -86 -19 -114 7 -20 19 -21 22 -7 33 9
6 16 26 16 46 0 34 1 35 34 31 40 -5 46 14 14 43 -21 19 -28 7 -8 -13 18 -18
5 -23 -30 -11 -20 7 -30 17 -29 29 1 16 8 18 54 16 29 -2 60 -9 69 -17z m-169
-6 c5 -14 -63 -50 -74 -40 -3 4 4 18 17 32 25 26 50 30 57 8z m43 -32 c12 -24
13 -71 1 -71 -9 0 -31 53 -31 76 0 20 18 17 30 -5z"/>
<path d="M530 650 c-8 -5 -27 -10 -41 -10 -15 0 -37 -8 -50 -18 -13 -11 -36
-22 -51 -26 -16 -3 -28 -11 -28 -16 0 -5 -18 -21 -40 -35 -22 -14 -40 -31 -40
-39 0 -8 -11 -21 -25 -30 -14 -9 -28 -29 -31 -44 -4 -15 -13 -35 -21 -44 -8
-9 -16 -34 -18 -55 -1 -21 -6 -46 -10 -56 -4 -9 -4 -29 -1 -43 l7 -26 195 4
c183 3 194 3 200 -15 3 -11 1 -24 -6 -31 -10 -8 -11 -5 -6 14 7 24 6 24 -9 5
-23 -29 -14 -40 37 -43 40 -3 48 0 72 29 34 40 31 73 -6 77 -27 3 -26 5 53 95
45 51 102 118 126 150 43 56 44 59 28 77 -10 11 -27 22 -39 26 -11 3 -29 13
-38 21 -33 29 -226 53 -258 33z m73 -22 c-2 -5 -3 -53 -3 -108 0 -77 -3 -100
-13 -100 -16 0 -63 192 -52 210 7 12 72 10 68 -2z m85 4 c10 -7 7 -30 -15
-112 -38 -141 -53 -142 -53 -2 0 60 3 112 7 115 9 9 45 8 61 -1z m-158 -104
c12 -51 25 -98 27 -105 3 -7 -2 -13 -11 -13 -10 0 -33 33 -61 91 -49 96 -49
119 0 119 20 0 25 -10 45 -92z m241 76 c12 -14 7 -29 -36 -110 -27 -52 -55
-94 -63 -94 -8 0 -11 7 -8 18 3 9 15 53 26 97 12 44 23 86 25 93 6 17 40 15
56 -4z m-305 -105 c27 -54 43 -98 39 -108 -7 -17 -17 -7 -107 108 l-42 53 23
19 c13 11 27 19 32 19 5 0 29 -41 55 -91z m377 60 c8 -13 -4 -33 -54 -97 -35
-44 -70 -81 -76 -81 -7 -1 -13 1 -13 4 0 2 23 48 51 100 52 97 69 110 92 74z
m-483 -37 c0 -5 27 -42 61 -82 41 -48 58 -75 51 -82 -11 -11 -15 -9 -110 66
-61 48 -73 71 -50 94 14 14 48 16 48 4z m-46 -82 c18 -17 55 -47 83 -68 27
-20 48 -42 46 -48 -5 -16 -203 77 -203 95 0 13 28 51 37 51 2 0 18 -14 37 -30z
m260 -71 c12 -63 6 -76 -14 -30 -19 41 -19 61 -1 61 5 0 11 -14 15 -31z m37
-26 l1 -58 9 54 c10 60 13 66 27 57 6 -3 4 -22 -5 -47 -7 -23 -12 -47 -10 -53
2 -6 12 13 21 42 10 28 22 50 26 47 5 -3 6 -13 3 -22 -5 -12 -3 -14 7 -8 9 5
11 4 6 -4 -4 -6 -11 -9 -15 -7 -4 3 -15 -11 -24 -30 -10 -19 -22 -32 -27 -29
-6 3 -10 0 -10 -7 -1 -9 -5 -7 -14 5 -12 15 -14 16 -20 2 -3 -8 -11 -14 -18
-13 -7 2 -12 -3 -13 -10 0 -7 -7 -17 -15 -22 -21 -14 -110 -13 -110 1 0 7 18
9 53 5 35 -4 46 -3 32 3 -11 5 -32 10 -47 10 -18 1 -28 6 -28 16 0 19 -1 19
56 -5 63 -27 67 -19 5 10 -32 14 -48 27 -44 36 4 10 13 7 37 -11 46 -35 58
-31 16 4 -19 16 -31 33 -27 37 5 5 22 -7 38 -26 35 -43 39 -30 4 16 -16 21
-21 35 -14 39 13 9 11 10 42 -50 25 -49 25 -50 32 -22 4 15 5 43 3 62 -3 24 0
35 9 35 9 0 13 -18 14 -57z m-182 -49 c1 -1 1 -7 -2 -12 -7 -10 -196 25 -214
40 -12 9 -8 32 9 55 7 8 36 -1 106 -34 53 -25 99 -47 101 -49z m-96 -21 c56
-11 87 -21 87 -30 0 -10 -27 -13 -115 -13 -107 0 -115 1 -115 19 0 37 12 53
34 47 11 -3 60 -14 109 -23z m343 -44 c4 -8 -1 -9 -17 -4 -23 7 -24 7 -4 -9
12 -9 15 -15 7 -16 -8 0 -10 -5 -6 -12 4 -7 4 -10 -1 -6 -4 4 -16 -3 -26 -15
l-18 -22 -1 29 c0 21 4 27 15 23 17 -7 30 9 15 18 -5 3 -10 10 -10 16 0 13 37
11 46 -2z m-80 -77 c-11 -10 -15 4 -8 28 l7 25 3 -23 c2 -13 1 -26 -2 -30z"/>
</g>
</svg>
