<?xml version="1.0" standalone="no"?>
<!DOCTYPE svg PUBLIC "-//W3C//DTD SVG 20010904//EN"
 "http://www.w3.org/TR/2001/REC-SVG-20010904/DTD/svg10.dtd">
<svg version="1.0" xmlns="http://www.w3.org/2000/svg"
 width="900.000000pt" height="660.000000pt" viewBox="0 0 900.000000 660.000000"
 preserveAspectRatio="xMidYMid meet">
<metadata>
Created by potrace 1.10, written by Peter Selinger 2001-2011
</metadata>
<g transform="translate(0.000000,660.000000) scale(0.100000,-0.100000)"
fill="#000000" stroke="none">
<path d="M6194 6315 c-7 -18 3 -35 22 -35 8 0 14 -4 14 -10 0 -5 11 -12 24
-16 31 -7 61 -39 47 -49 -15 -9 -14 -35 2 -35 13 0 130 -96 135 -111 9 -22
-42 -6 -69 22 -19 20 -36 29 -46 25 -14 -6 -13 -10 7 -31 13 -14 27 -25 32
-25 5 0 47 -39 93 -86 68 -68 85 -91 85 -115 0 -16 5 -29 10 -29 6 0 10 -21
10 -46 0 -49 -22 -59 -28 -13 -2 13 -9 31 -16 39 -6 8 -20 31 -30 50 -11 19
-32 47 -48 61 -15 14 -28 31 -28 37 0 7 -9 12 -20 12 -26 0 -25 -18 1 -46 26
-28 22 -55 -4 -29 -10 9 -24 14 -33 11 -13 -5 -13 -9 3 -31 10 -13 26 -27 36
-30 9 -4 17 -11 17 -16 0 -5 5 -9 11 -9 22 0 48 -45 49 -82 0 -27 4 -38 15
-38 8 0 15 5 15 10 0 6 4 10 10 10 13 0 50 -32 50 -44 0 -5 7 -17 16 -27 11
-12 14 -27 10 -44 -8 -31 -26 -24 -26 11 0 15 -6 24 -15 24 -8 0 -15 6 -15 14
0 22 -17 28 -40 16 -15 -8 -20 -19 -18 -37 4 -34 22 -40 36 -11 11 23 11 23
11 -4 1 -16 -3 -28 -9 -28 -15 0 -12 -33 5 -56 8 -10 15 -31 15 -46 0 -15 6
-31 14 -35 8 -4 16 -26 18 -47 5 -58 28 -59 28 -2 0 34 -4 46 -15 46 -11 0
-15 11 -15 40 0 27 -5 43 -15 46 -18 7 -20 44 -2 44 7 0 24 -25 37 -55 37 -84
51 -72 42 36 -4 59 -2 68 15 77 17 9 19 20 18 84 -1 40 -3 106 -4 146 -1 57
-4 72 -16 72 -9 0 -15 -9 -15 -22 0 -27 -15 -54 -23 -42 -3 5 -5 37 -4 71 0
45 -4 68 -16 81 -10 10 -17 35 -17 55 0 42 -29 109 -44 104 -6 -2 -12 -13 -14
-25 -2 -11 -11 -22 -20 -24 -21 -5 -72 31 -72 49 0 15 -40 56 -80 81 -14 9
-29 22 -33 29 -4 7 -13 13 -18 13 -6 0 -17 7 -25 15 -20 19 -53 19 -60 0z
m338 -246 c4 -24 12 -45 18 -47 11 -4 13 -64 3 -100 -8 -31 -22 -10 -23 33 0
17 -7 41 -15 55 -18 32 -20 113 -3 108 7 -3 16 -24 20 -49z m83 -271 c9 -46 2
-143 -10 -143 -14 0 -23 67 -17 125 5 57 18 65 27 18z"/>
<path d="M7420 6282 c-85 -42 -170 -108 -170 -133 0 -10 -14 -12 -23 -2 -7 6
31 76 45 81 13 6 9 32 -4 32 -35 -1 -108 -103 -108 -151 0 -10 -5 -19 -11 -19
-5 0 -15 -13 -20 -30 -6 -16 -15 -30 -20 -30 -5 0 -9 14 -9 30 0 18 -5 30 -13
30 -15 0 -39 -46 -63 -125 -10 -33 -31 -80 -46 -104 -22 -33 -26 -46 -18 -57
7 -7 10 -21 7 -31 -4 -17 -5 -16 -12 2 -5 11 -14 24 -22 28 -17 11 -17 38 2
63 8 10 15 28 15 39 0 11 7 33 15 49 18 35 19 56 3 56 -35 -1 -78 -107 -78
-190 0 -31 -5 -61 -11 -67 -6 -6 -13 -37 -15 -69 -5 -61 -41 -151 -55 -137 -4
4 -9 40 -11 78 -2 39 -7 70 -13 70 -23 0 -44 -167 -24 -191 8 -10 13 -43 12
-88 0 -65 -3 -78 -31 -120 -18 -26 -32 -57 -32 -69 0 -12 -3 -32 -6 -45 -5
-18 -9 -20 -21 -10 -17 14 -33 -3 -33 -35 0 -34 -25 -11 -28 26 -3 31 0 37 21
43 33 8 45 62 23 106 -19 38 -20 67 -3 93 12 18 24 53 42 121 3 13 -3 28 -19
43 l-24 23 -8 -54 c-4 -29 -7 -57 -6 -61 1 -4 -5 -21 -13 -37 -8 -16 -15 -47
-15 -69 0 -22 -5 -41 -12 -43 -10 -4 -10 -10 0 -32 16 -35 15 -61 -2 -75 -7
-6 -16 -25 -20 -41 -5 -30 -26 -42 -26 -16 0 7 -7 19 -15 26 -10 8 -15 31 -15
69 0 64 -16 101 -26 64 -15 -55 -46 2 -42 76 3 70 -37 170 -69 171 -18 0 -16
-35 2 -50 8 -7 15 -18 15 -24 0 -6 9 -20 21 -29 21 -18 23 -57 3 -64 -10 -3
-84 105 -84 124 0 5 -7 18 -15 28 -8 11 -29 40 -48 65 -18 25 -42 47 -52 48
-11 2 -51 27 -90 56 -38 29 -77 55 -85 59 -8 4 -28 16 -45 27 -49 32 -104 58
-135 65 -17 4 -32 11 -35 16 -9 13 -55 11 -55 -2 0 -6 9 -13 19 -16 11 -3 22
-11 25 -19 3 -8 15 -14 26 -14 11 0 46 -13 77 -30 31 -16 66 -30 79 -30 14 0
24 -6 24 -14 0 -7 9 -16 20 -19 11 -3 20 -10 20 -16 0 -13 -27 -15 -34 -2 -7
10 -120 45 -178 55 -23 4 -42 16 -52 31 -9 14 -21 25 -28 25 -6 0 -16 8 -23
17 -11 14 -34 17 -176 17 -138 0 -170 -3 -204 -19 -22 -10 -51 -19 -65 -19
-14 -1 -26 -5 -28 -11 -1 -6 26 -11 65 -12 38 -1 85 -4 106 -7 26 -3 37 0 37
9 0 10 33 15 125 20 116 7 148 4 132 -11 -3 -3 -43 -8 -89 -11 -98 -5 -115
-10 -101 -24 5 -5 45 -10 89 -10 43 -1 93 -7 109 -14 17 -6 47 -15 68 -19 58
-11 34 -26 -41 -26 -70 0 -108 -12 -77 -24 9 -3 61 -6 114 -6 54 0 126 -3 161
-7 54 -5 60 -8 45 -19 -20 -15 -10 -37 14 -29 9 3 26 -2 37 -10 10 -8 31 -15
46 -15 15 0 47 -17 77 -40 51 -41 59 -54 41 -65 -12 -7 14 -44 83 -117 64 -69
126 -151 156 -210 l25 -47 -23 -18 -22 -18 25 -35 c14 -19 31 -45 37 -57 7
-13 16 -23 21 -23 16 0 8 51 -14 90 -23 40 -19 68 9 77 16 6 53 -60 53 -95 0
-17 4 -33 9 -36 15 -10 22 -84 9 -110 -12 -27 -51 -36 -63 -15 -5 7 -13 4 -26
-7 -17 -16 -19 -16 -25 1 -5 11 -1 21 9 27 38 21 4 73 -48 73 -11 0 -20 7 -21
15 -2 39 -18 80 -30 80 -8 0 -14 6 -14 14 0 7 -14 16 -31 20 -17 3 -47 18 -67
33 -57 43 -79 53 -114 52 -32 -1 -33 -1 -6 -9 28 -8 138 -109 138 -126 0 -6
14 -20 31 -33 17 -13 35 -36 41 -51 5 -16 20 -36 34 -45 13 -8 24 -24 24 -33
0 -10 14 -31 30 -47 32 -31 38 -53 16 -61 -19 -7 -96 68 -96 94 0 25 -15 29
-24 7 -3 -8 -12 -12 -20 -9 -8 3 -30 1 -50 -4 -30 -9 -37 -7 -48 9 -8 13 -31
23 -63 28 -36 6 -42 9 -20 10 39 2 69 25 61 47 -5 13 -15 16 -50 12 -24 -3
-50 -2 -57 2 -33 17 -69 20 -69 6 0 -15 21 -26 51 -26 23 0 25 -15 3 -24 -28
-11 -47 -6 -80 19 -34 26 -59 32 -69 15 -3 -6 -53 -10 -113 -10 -62 0 -130 -6
-162 -15 -30 -8 -75 -15 -100 -15 -25 0 -56 -7 -70 -15 -14 -8 -35 -14 -48
-15 -32 0 -41 -30 -14 -48 26 -17 29 -42 5 -42 -35 0 -127 -56 -194 -118 -67
-62 -85 -92 -54 -92 17 0 30 9 78 54 57 53 128 97 180 112 29 9 65 22 80 30
16 8 35 14 43 14 12 0 62 22 126 56 36 19 48 18 48 -6 0 -11 -5 -20 -11 -20
-5 0 -8 -4 -5 -9 6 -10 61 13 71 30 4 5 21 9 38 9 18 1 43 7 57 15 28 16 107
19 129 6 20 -13 -3 -41 -33 -41 -12 0 -39 -9 -61 -20 -22 -11 -54 -20 -72 -20
-17 0 -34 -4 -38 -9 -13 -21 -74 -43 -130 -47 -76 -6 -85 -9 -85 -34 0 -22
-10 -26 -26 -10 -16 16 -193 -15 -197 -35 -1 -5 19 -11 46 -13 27 -2 47 1 47
7 0 16 39 33 60 26 37 -12 23 -35 -20 -35 -28 0 -40 -4 -40 -14 0 -17 -31 -29
-53 -20 -14 5 -44 -6 -97 -38 -8 -4 -28 -14 -43 -22 -25 -11 -26 -14 -13 -25
9 -8 13 -17 10 -22 -9 -15 -61 -10 -68 6 -3 8 -12 15 -20 15 -8 0 -19 6 -23
13 -4 6 -35 30 -68 52 -33 21 -74 51 -91 65 -17 14 -52 37 -77 52 -26 15 -47
34 -47 42 0 24 41 61 105 96 33 18 70 41 83 51 13 9 37 21 55 25 18 4 52 24
76 45 24 22 47 39 52 39 20 0 16 -20 -11 -46 -36 -36 -37 -44 -5 -44 14 0 29
8 35 20 10 20 108 70 135 70 7 0 39 12 71 26 58 26 155 37 164 20 3 -6 -11
-14 -30 -19 -30 -8 -32 -10 -16 -19 13 -7 33 -3 79 17 82 36 155 50 251 48 61
-1 81 -4 88 -17 7 -12 25 -16 78 -16 53 0 70 -3 70 -14 0 -25 30 -27 41 -3 9
21 5 29 -35 71 -25 26 -46 53 -46 61 0 8 -7 15 -15 15 -17 0 -20 -17 -4 -22 6
-2 7 -12 2 -25 -7 -20 -10 -20 -38 -7 -16 8 -45 25 -64 39 -22 16 -47 25 -72
25 -21 0 -41 5 -44 11 -4 5 -18 14 -32 20 -19 7 -23 14 -18 32 8 24 44 67 57
67 4 0 8 -13 8 -29 0 -47 17 -45 46 5 l27 46 76 -7 c42 -3 92 -6 111 -7 29 0
39 -6 53 -30 9 -16 14 -34 11 -40 -6 -10 -49 -7 -91 7 -15 5 -23 3 -23 -4 0
-6 6 -11 14 -11 8 0 16 -7 20 -15 3 -9 18 -15 40 -15 21 0 36 -6 40 -15 3 -8
15 -15 26 -15 11 0 23 7 26 15 9 23 56 18 82 -9 14 -15 19 -27 12 -31 -5 -3
-10 -10 -10 -15 0 -12 60 -43 68 -36 3 3 1 6 -5 6 -6 0 -14 16 -17 35 -4 19
-11 35 -16 35 -6 0 -10 6 -10 13 0 8 -20 34 -46 58 -25 24 -77 77 -117 117
-74 76 -114 102 -154 102 -14 0 -23 6 -23 15 0 18 -41 20 -57 4 -12 -12 -33
-4 -33 12 0 5 7 9 15 9 21 0 19 19 -2 26 -10 3 -27 10 -38 16 -11 6 -56 19
-100 29 -73 16 -88 17 -190 3 -60 -8 -118 -19 -127 -24 -10 -6 -23 -10 -30
-10 -7 0 -42 -19 -78 -42 -58 -38 -81 -55 -124 -93 -27 -23 -76 -55 -86 -55
-5 0 -10 -7 -10 -15 0 -8 8 -15 18 -15 24 0 90 24 104 38 7 7 17 12 23 12 7 0
21 8 33 18 52 43 68 52 89 52 18 0 23 6 23 25 0 20 6 25 38 31 20 4 43 11 50
17 18 14 234 28 247 16 5 -5 19 -9 30 -9 12 0 30 -9 40 -20 10 -11 24 -20 31
-20 26 0 24 -20 -7 -49 -17 -17 -40 -47 -51 -68 -11 -21 -25 -41 -30 -44 -5
-3 -12 -25 -15 -48 -3 -22 -10 -41 -14 -41 -5 0 -9 -16 -9 -35 0 -38 -14 -44
-46 -20 -22 17 -71 20 -76 4 -2 -7 -26 -5 -71 7 -69 17 -96 13 -64 -10 35 -27
20 -38 -41 -31 -43 5 -69 2 -102 -10 -27 -11 -80 -18 -133 -20 -48 -1 -90 -5
-94 -9 -16 -16 20 -27 99 -28 64 -2 91 2 110 14 22 14 107 23 187 19 29 -2 -7
-24 -51 -32 -24 -4 -63 -13 -88 -20 -25 -6 -93 -11 -152 -9 -99 2 -110 0 -150
-24 -41 -24 -42 -26 -15 -26 17 0 27 -5 27 -14 0 -21 -63 -56 -101 -56 -28 0
-44 -10 -87 -51 -28 -29 -52 -57 -52 -64 0 -7 -10 -25 -21 -40 l-22 -27 -33
38 c-30 34 -36 36 -64 28 -18 -5 -31 -12 -31 -16 2 -14 201 -189 225 -197 6
-2 25 -15 43 -28 43 -33 162 -93 183 -93 22 0 44 -25 37 -43 -3 -8 -31 -22
-64 -32 -32 -10 -67 -24 -78 -31 -11 -8 -27 -14 -37 -14 -10 0 -18 -7 -18 -15
0 -11 11 -15 39 -15 22 0 42 4 46 9 3 5 20 13 38 16 17 4 39 13 47 20 44 38
100 5 100 -58 0 -59 25 -42 26 18 1 56 11 64 50 39 25 -17 27 -17 39 -1 12 17
65 24 78 10 13 -12 -16 -33 -47 -33 -28 -1 -29 -2 -13 -14 9 -7 17 -18 17 -23
0 -6 9 -13 21 -16 12 -3 18 -10 14 -16 -9 -16 -35 -13 -35 4 0 22 -23 18 -44
-7 -16 -18 -17 -25 -6 -41 11 -18 8 -24 -29 -54 -22 -19 -41 -43 -41 -53 0 -9
-6 -23 -14 -29 -19 -16 -27 -61 -10 -61 7 0 18 9 24 20 24 45 41 2 21 -52 -12
-34 -24 -158 -14 -158 4 1 18 9 31 20 18 15 26 36 34 92 12 93 30 137 55 135
14 -2 19 6 21 32 2 19 10 44 18 57 9 12 15 31 14 41 -6 55 0 55 98 -2 70 -41
110 -54 124 -39 7 7 -39 95 -57 109 -7 6 -15 22 -17 35 -4 31 -22 33 -26 2 -2
-13 3 -25 12 -28 18 -7 21 -49 5 -60 -15 -9 -48 34 -49 62 0 12 -7 24 -15 28
-26 10 -17 23 32 47 41 20 49 21 71 8 23 -13 40 -52 57 -131 5 -26 40 -56 52
-44 8 8 -18 80 -34 93 -9 7 -13 24 -11 45 l3 33 60 -2 c33 0 65 -2 71 -2 14
-1 18 -279 4 -301 -16 -26 -23 16 -17 104 4 61 2 89 -8 107 -8 13 -19 34 -24
47 -17 36 -24 25 -16 -25 4 -27 12 -95 16 -153 13 -148 15 -170 28 -218 14
-51 26 -48 35 9 7 47 15 46 25 -2 4 -18 12 -34 19 -37 16 -5 16 100 0 116 -12
12 -31 328 -21 345 2 4 10 7 17 7 14 0 28 -66 47 -210 14 -112 25 -164 42
-195 9 -16 19 -39 22 -49 4 -14 9 -16 16 -9 17 17 -5 153 -34 208 -6 11 -12
54 -15 95 -2 41 -11 87 -18 102 -8 15 -14 36 -14 48 0 17 6 20 39 20 l40 0 7
-56 c3 -31 13 -69 20 -83 8 -14 14 -40 14 -58 0 -17 4 -34 9 -37 4 -3 11 -35
15 -70 3 -36 13 -78 21 -93 8 -15 16 -36 19 -45 3 -10 10 -18 17 -18 23 0 -12
215 -40 243 -6 6 -11 32 -11 58 0 26 -6 62 -14 80 -8 19 -17 55 -21 82 -6 39
-11 48 -32 53 -25 7 -134 -1 -187 -13 -28 -6 -29 -5 -14 15 32 46 239 182 276
182 10 0 33 11 52 25 55 41 92 42 148 6 47 -30 102 -41 102 -21 0 6 -10 15
-22 20 -13 5 -34 18 -48 29 -22 17 -23 21 -8 26 26 10 107 0 156 -19 32 -12
48 -14 63 -6 25 14 72 -7 77 -33 2 -10 -8 -35 -22 -56 -14 -20 -26 -49 -26
-64 0 -15 -5 -27 -10 -27 -19 0 -60 32 -60 46 0 8 -9 14 -21 14 -12 0 -19 5
-16 13 5 13 9 13 43 3 18 -6 22 -1 27 31 8 49 -6 63 -36 35 -13 -12 -28 -22
-33 -22 -18 0 -74 -75 -74 -98 0 -4 14 -23 31 -40 18 -18 35 -49 40 -70 4 -20
13 -57 19 -82 27 -109 33 -137 38 -172 3 -32 8 -38 28 -38 22 0 24 -4 23 -52
0 -84 -12 -132 -32 -136 -15 -3 -17 5 -17 57 0 48 -3 61 -15 61 -9 0 -20 12
-26 28 -11 27 -11 27 -21 5 -8 -16 -5 -39 10 -90 19 -65 20 -86 15 -471 l-6
-403 -28 -6 c-15 -3 -36 -14 -46 -26 -18 -20 -18 -20 25 -14 l44 5 -5 -86 c-3
-48 -6 -126 -6 -175 0 -70 -3 -88 -16 -93 -8 -4 -22 0 -31 7 -14 11 -18 11
-28 -3 -6 -8 -20 -17 -30 -19 -29 -6 -31 -28 -3 -38 18 -7 27 -22 36 -55 14
-58 33 -60 30 -3 -3 47 7 87 22 87 14 0 15 -65 3 -158 -6 -49 -28 -65 -49 -36
-10 15 -22 19 -59 16 -51 -4 -55 -10 -26 -37 11 -10 20 -26 20 -37 0 -14 -8
-18 -40 -18 -24 0 -42 5 -45 12 -2 7 -6 61 -9 121 -2 59 -8 113 -14 120 -10
13 -8 86 4 177 8 60 7 178 -2 223 -4 19 -11 27 -22 25 -15 -3 -17 -32 -19
-288 -2 -244 0 -291 14 -328 20 -53 11 -66 -40 -50 -33 10 -41 9 -65 -9 -23
-17 -28 -29 -32 -84 -4 -57 -7 -64 -27 -67 -13 -2 -23 1 -23 7 0 6 -14 18 -31
26 -28 15 -32 15 -66 -5 -55 -32 -124 -92 -133 -115 -5 -11 -9 115 -10 290 -3
406 1 1329 5 1333 1 2 22 -6 46 -17 123 -54 116 -53 300 -49 179 5 227 14 259
53 24 29 -2 36 -131 34 -258 -5 -320 -2 -355 17 -32 17 -34 17 -53 0 -10 -10
-30 -16 -43 -14 -22 3 -23 9 -30 98 -10 124 -15 147 -31 131 -16 -16 -15
-2822 1 -2861 9 -22 10 -19 16 30 9 82 27 597 27 769 -1 128 2 151 15 151 15
0 61 -29 99 -63 l20 -18 -24 -20 c-13 -10 -29 -19 -36 -19 -21 0 -47 -37 -41
-58 8 -25 73 -75 86 -67 15 9 12 51 -5 65 -13 11 -11 17 20 47 50 49 45 83
-20 123 -42 26 -44 45 -7 64 15 8 36 23 46 35 21 23 68 28 84 9 21 -26 44
-128 37 -168 -7 -43 12 -95 46 -126 26 -24 78 -23 112 2 43 31 32 60 -13 32
-39 -25 -91 31 -105 112 -6 31 -1 76 23 240 7 44 8 45 41 42 19 -1 41 -7 48
-14 9 -7 17 -7 28 2 8 7 53 15 100 18 l85 5 0 -34 c0 -19 -5 -90 -10 -159 -5
-69 -14 -206 -20 -305 -10 -173 -22 -245 -40 -245 -5 0 -12 4 -15 10 -14 22
-53 9 -88 -30 -33 -37 -57 -51 -57 -32 0 4 -16 18 -35 31 -26 18 -35 31 -35
52 0 33 -19 39 -27 9 -6 -23 -26 -26 -43 -6 -6 8 -24 16 -38 18 -38 4 -32 20
17 42 22 11 41 23 41 27 0 16 -51 42 -97 50 -26 5 -54 16 -63 24 -37 34 -79 2
-45 -34 9 -11 39 -29 67 -41 l50 -21 -27 -25 c-21 -20 -26 -30 -20 -52 9 -36
23 -44 71 -38 35 4 44 1 65 -23 14 -16 40 -31 61 -35 20 -3 41 -13 48 -21 19
-22 38 -18 71 15 27 26 92 50 105 38 5 -5 15 -177 15 -268 1 -80 -11 -313 -16
-327 -5 -14 -57 -2 -81 18 -11 9 -19 8 -34 -6 -10 -9 -24 -14 -30 -10 -20 13
-60 -4 -60 -25 0 -11 -7 -20 -15 -20 -19 0 -20 39 0 46 8 3 17 26 21 52 3 26
11 52 16 59 5 6 10 41 12 78 2 64 1 67 -31 91 -39 30 -42 56 -8 95 13 16 22
36 19 43 -8 21 -164 32 -218 15 -64 -20 -69 -26 -44 -59 l21 -29 -39 -63 c-36
-60 -38 -67 -36 -136 1 -39 -1 -72 -5 -72 -3 0 -15 7 -25 17 -17 15 -18 15
-18 -14 0 -16 -6 -38 -14 -49 -14 -18 -15 -18 -25 9 -6 16 -11 31 -11 35 0 14
-106 102 -122 102 -27 0 -22 -12 23 -55 57 -56 112 -142 104 -163 -5 -14 -16
-6 -58 40 -49 53 -102 88 -134 88 -20 0 -10 -24 11 -28 10 -2 26 -11 35 -20
10 -10 33 -30 52 -47 39 -34 69 -77 69 -100 0 -19 -19 -20 -26 0 -4 8 -12 15
-20 15 -8 0 -14 5 -14 10 0 6 -11 15 -24 21 -13 6 -28 21 -34 34 -7 15 -22 25
-44 28 -18 3 -46 8 -63 12 -29 6 -29 6 -10 -10 17 -14 18 -17 5 -25 -8 -5 -35
-10 -60 -10 -49 0 -86 -15 -60 -24 8 -2 40 -6 70 -8 57 -4 142 -40 182 -78 12
-11 28 -18 36 -15 17 6 60 -22 67 -45 3 -10 20 -23 37 -29 27 -10 33 -8 45 9
10 14 21 18 37 14 14 -3 27 1 35 10 8 9 19 16 26 16 6 0 32 13 56 30 46 31 73
31 96 1 7 -9 13 -24 13 -34 0 -16 -5 -18 -38 -12 -30 5 -47 1 -87 -21 -62 -35
-112 -44 -255 -48 -85 -3 -120 0 -135 10 -25 18 -35 18 -35 -1 0 -8 5 -15 12
-15 6 0 20 -8 30 -17 16 -14 41 -17 155 -17 121 1 137 3 149 19 22 30 34 6 27
-53 -4 -35 -10 -52 -20 -52 -17 0 -64 -29 -79 -49 -15 -19 -126 -16 -165 5
-15 8 -41 14 -57 14 -39 0 -48 14 -55 84 -7 68 -13 78 -34 51 -10 -15 -13 -33
-8 -69 7 -56 30 -92 64 -101 13 -3 20 -10 15 -14 -5 -5 -279 -14 -609 -21
-856 -19 -3555 -14 -3800 6 -67 5 -410 -9 -522 -22 -33 -4 -53 -11 -53 -19 0
-10 45 -14 188 -19 103 -3 266 -10 362 -16 212 -12 405 -13 428 -2 9 5 71 4
137 -1 86 -7 164 -6 275 4 120 9 737 13 2727 13 1414 1 2575 5 2579 9 4 4 4
10 0 15 -9 8 -811 30 -1159 31 l-228 1 3 28 c2 22 7 26 28 24 54 -8 148 -10
202 -5 48 4 57 8 62 28 6 22 7 22 138 18 163 -5 107 -4 531 -4 196 0 364 -2
372 -6 9 -3 29 0 46 7 25 11 33 11 45 -2 13 -13 14 -25 5 -75 -23 -127 29
-123 59 4 6 29 18 57 25 63 19 15 225 26 225 11 0 -6 -8 -15 -17 -18 -10 -4
-24 -13 -31 -20 -18 -17 -62 -16 -86 2 -26 19 -38 10 -24 -19 18 -41 69 -43
138 -7 33 17 61 27 65 22 8 -15 66 -41 88 -41 10 0 40 14 65 31 l45 30 29 -32
c32 -34 91 -54 119 -38 27 14 85 11 99 -6 31 -37 80 -7 80 49 0 14 4 26 10 26
13 0 32 76 25 99 -3 9 -19 27 -35 40 -22 16 -29 28 -25 44 3 12 -1 29 -8 37
-18 21 -92 60 -115 60 -10 0 -22 3 -26 7 -19 19 -86 30 -132 21 -50 -9 -67
-10 -129 -6 -21 1 -41 -5 -54 -16 -24 -22 -47 -15 -63 19 -16 37 -62 35 -82
-4 -19 -36 -71 -59 -97 -43 -10 7 -25 12 -32 12 -10 0 -16 21 -20 74 -4 41 -8
81 -9 88 -4 19 120 20 149 2 24 -15 53 -19 53 -6 0 4 -10 13 -22 21 -18 11
-19 15 -6 22 10 5 36 1 71 -11 31 -11 65 -20 76 -20 11 0 23 -4 26 -10 9 -14
55 -12 55 3 0 12 -12 20 -66 46 -16 7 -37 17 -46 22 -31 16 -162 31 -215 26
-29 -3 -55 -1 -58 4 -4 5 -15 9 -26 9 -24 0 -24 15 1 40 23 23 37 25 42 8 4
-10 10 -10 32 0 16 7 71 12 138 12 89 0 115 -3 129 -16 11 -10 25 -14 36 -10
27 11 -33 55 -77 56 -41 2 -78 14 -64 22 5 3 21 8 37 12 34 8 35 24 1 32 -40
10 -163 -3 -190 -21 -25 -16 -54 -20 -54 -7 0 10 44 43 87 65 18 10 55 17 83
17 66 0 70 25 5 35 -61 9 -102 -2 -146 -36 -20 -16 -44 -29 -52 -29 -8 0 -20
-14 -26 -32 -10 -28 -13 -30 -29 -16 -9 8 -37 24 -62 36 -50 24 -51 27 -54
149 l-1 72 -30 3 c-24 2 -30 8 -30 28 0 17 -6 26 -20 28 -11 2 -29 7 -40 12
-11 4 -28 11 -37 14 -26 8 -22 33 7 40 33 8 32 34 -2 47 -47 19 -173 16 -210
-4 -38 -20 -42 -37 -12 -55 17 -11 24 -11 37 1 28 23 97 41 117 30 15 -9 13
-14 -20 -39 -52 -40 -95 -86 -95 -102 0 -8 -7 -26 -16 -42 -10 -16 -14 -35
-10 -46 6 -15 19 -5 83 59 42 42 80 77 84 77 13 0 11 -55 -3 -85 -6 -14 -8
-28 -5 -32 12 -11 47 29 47 53 0 13 10 30 22 38 31 22 52 3 45 -41 -3 -19 1
-55 8 -81 20 -65 19 -101 -2 -108 -60 -19 -60 -21 1 -48 33 -14 56 -29 52 -33
-9 -9 -95 -32 -123 -33 -20 0 -21 4 -16 37 3 21 10 44 15 50 7 9 3 16 -17 23
-14 5 -30 10 -35 10 -15 0 -22 40 -11 54 17 21 -33 30 -62 12 -22 -14 -68 -20
-139 -17 l-38 1 0 58 c0 32 5 63 10 68 8 8 6 15 -5 24 -27 22 -12 97 36 180 5
8 13 25 19 38 9 20 16 22 97 22 91 0 167 -20 190 -50 11 -13 12 -12 13 7 0 12
-6 26 -13 30 -7 4 -23 21 -35 36 -31 41 -86 67 -128 60 -33 -5 -34 -7 -18 -24
16 -18 16 -19 -9 -19 -14 0 -29 5 -32 10 -14 22 -50 9 -72 -25 -13 -19 -23
-39 -23 -44 0 -5 -7 -11 -15 -15 -8 -3 -15 -14 -15 -25 0 -25 -18 -37 -26 -18
-6 18 21 105 40 127 7 8 16 29 20 45 3 17 23 63 43 103 32 62 36 75 25 92 -6
11 -12 31 -12 46 0 48 -53 113 -92 114 -22 0 -23 8 -2 32 22 23 8 41 -54 68
-48 22 -97 26 -107 10 -9 -14 40 -60 64 -60 22 0 41 -27 41 -59 0 -17 6 -21
29 -21 40 0 61 -32 61 -90 0 -61 -26 -86 -99 -96 l-54 -7 24 -18 c27 -21 79
-25 97 -7 8 8 15 9 23 1 7 -7 1 -25 -19 -60 -17 -28 -32 -59 -34 -68 -7 -40
-27 -21 -73 70 -44 90 -57 106 -69 87 -7 -12 25 -98 67 -181 32 -61 37 -80 32
-111 -4 -23 -2 -41 4 -45 6 -3 11 -15 11 -26 0 -13 -7 -19 -23 -19 -28 0 -67
-26 -67 -46 0 -9 -10 -14 -29 -14 -43 0 -55 43 -41 151 5 46 10 238 10 426 0
292 2 343 14 343 8 0 18 -4 21 -10 12 -20 41 -9 59 21 10 18 28 41 39 52 19
19 19 21 2 33 -13 10 -19 30 -22 71 -6 89 -8 97 -16 111 -17 26 -27 10 -27
-45 0 -31 5 -71 12 -89 10 -29 9 -36 -15 -67 -20 -26 -32 -34 -47 -30 -15 4
-19 10 -14 22 4 9 9 131 12 271 4 255 9 293 38 269 11 -9 14 -37 12 -110 -2
-99 3 -122 24 -101 7 7 10 40 9 89 -2 43 -3 95 -3 116 0 37 -1 39 -29 35 -17
-3 -34 1 -40 9 -16 19 12 27 69 19 51 -6 77 3 70 25 -4 10 -24 14 -74 14 l-69
0 2 30 c1 17 5 146 9 288 7 280 7 280 62 258 27 -10 74 -17 222 -29 73 -7 140
4 223 37 45 18 49 15 42 -36 -5 -40 -4 -45 6 -28 7 11 18 24 26 28 7 4 13 13
13 20 1 25 47 55 95 63 41 6 46 9 25 14 -18 4 -25 13 -25 31 0 34 -12 49 -40
49 -19 0 -24 7 -30 39 -7 42 2 111 15 111 11 0 20 -27 20 -63 0 -18 5 -39 10
-47 7 -12 12 -7 25 22 17 43 19 70 6 84 -14 13 -21 183 -11 229 10 43 -4 145
-25 192 -8 17 -15 38 -15 46 0 9 -12 22 -27 29 -30 14 -42 53 -24 71 16 16 14
27 -5 27 -12 0 -15 6 -10 23 14 43 11 51 -20 62 -17 5 -47 22 -67 38 -19 15
-45 27 -56 27 -11 0 -23 5 -26 11 -5 7 -39 9 -98 6 -74 -4 -93 -9 -106 -25 -9
-10 -30 -26 -47 -34 -31 -15 -32 -15 -43 9 -9 21 -14 23 -26 13 -16 -13 -45
-7 -45 10 0 5 9 10 19 10 10 0 22 8 26 18 6 16 7 16 19 0 12 -16 16 -15 58 5
40 19 44 24 34 41 -8 14 -8 20 2 23 7 3 19 11 27 20 10 10 25 12 44 8 24 -5
32 -2 41 14 16 31 79 29 109 -3 17 -18 36 -25 82 -29 33 -3 71 -12 84 -21 13
-9 26 -12 30 -7 3 5 1 12 -5 16 -19 12 -10 35 13 35 13 0 30 -12 42 -30 11
-16 23 -30 28 -30 4 0 12 -11 17 -25 10 -27 30 -34 30 -11 0 49 -86 126 -140
126 -26 0 -26 27 -1 35 11 3 32 3 48 -1 30 -8 113 -66 126 -90 13 -22 27 -16
27 11 0 23 3 25 28 19 77 -19 112 -59 121 -141 8 -75 25 -71 29 6 2 50 0 67
-12 73 -8 5 -13 15 -10 23 9 22 24 18 24 -5 0 -11 7 -20 15 -20 8 0 15 -6 15
-14 0 -7 6 -19 14 -26 8 -6 16 -23 18 -37 5 -39 28 -42 28 -3 0 30 -21 68 -67
120 -13 13 -23 30 -23 37 0 15 -26 17 -34 4 -7 -11 -66 16 -66 29 0 5 -9 10
-20 12 -12 2 -22 7 -23 13 -3 13 91 6 116 -8 28 -17 57 -45 57 -57 0 -5 7 -10
15 -10 8 0 15 -7 15 -15 0 -8 7 -15 15 -15 8 0 15 -7 15 -15 0 -9 7 -18 15
-21 8 -4 15 -14 15 -23 0 -10 12 -28 26 -42 l27 -24 -7 25 c-12 40 -12 49 -1
50 6 0 11 -8 13 -20 2 -11 9 -20 17 -20 7 0 18 -12 23 -27 8 -24 11 -25 17
-10 5 11 1 25 -10 37 -10 11 -15 23 -12 27 7 6 -25 65 -50 93 -7 8 -24 31 -36
50 -14 22 -33 36 -52 40 -17 4 -39 11 -50 17 -34 19 -197 43 -255 38 -145 -12
-267 -27 -282 -36 -28 -15 -40 -11 -33 11 6 17 2 20 -30 20 -30 0 -44 -8 -88
-53 -43 -44 -92 -77 -112 -77 -23 0 19 68 87 142 l38 40 79 -7 c44 -4 89 -4
100 0 40 12 10 25 -54 23 -36 -1 -68 2 -72 6 -9 9 30 42 74 61 36 15 143 13
223 -4 59 -13 60 -13 60 3 0 8 -17 20 -37 27 -21 6 -42 18 -46 25 -4 8 -19 14
-32 14 -14 0 -25 4 -25 9 0 17 26 27 97 39 64 10 78 10 134 -8 34 -11 68 -20
76 -20 15 0 66 -20 117 -46 31 -16 47 -11 28 8 -16 16 -15 38 1 38 7 0 31 -16
53 -35 44 -40 54 -43 54 -17 0 20 -56 82 -73 82 -6 0 -19 8 -29 17 -16 14 -24
15 -52 5 -18 -7 -41 -12 -52 -12 -16 1 -15 4 9 25 15 14 39 25 53 25 14 0 39
7 56 16 24 12 49 15 102 11 75 -5 116 -21 160 -62 33 -30 36 -31 36 -5 0 53
-80 110 -154 110 -19 0 -38 5 -41 10 -10 16 -65 11 -125 -10 -30 -11 -66 -20
-80 -20 -18 -1 -33 -13 -53 -45 -28 -44 -29 -45 -57 -30 -15 8 -47 17 -71 20
-24 4 -53 11 -65 17 -27 13 -70 6 -67 -10 2 -7 -7 -12 -21 -12 -14 0 -38 -12
-54 -27 -40 -37 -52 -46 -85 -61 -40 -17 -50 -15 -35 7 14 20 114 91 128 91
10 0 23 50 16 58 -7 6 -76 -30 -76 -40 0 -3 -33 -27 -74 -53 -62 -40 -73 -51
-74 -75 0 -20 -14 -41 -42 -69 -23 -23 -46 -38 -51 -36 -11 8 -1 32 17 39 8 3
14 12 14 21 0 8 4 15 8 15 5 0 14 24 22 53 11 47 25 64 129 167 140 139 256
230 392 306 12 7 26 17 32 23 6 6 19 11 28 11 9 0 19 7 23 15 3 8 16 15 29 15
25 0 65 35 53 47 -4 4 -16 2 -26 -5 -11 -7 -26 -12 -34 -12 -7 0 -19 -7 -26
-15 -7 -8 -21 -15 -31 -15 -11 0 -19 -4 -19 -9 0 -5 -10 -13 -22 -16 -61 -18
-205 -101 -246 -142 -7 -7 -17 -13 -21 -13 -5 0 -32 -24 -61 -54 -29 -30 -65
-57 -79 -61 -42 -11 -112 -103 -152 -199 -13 -30 -48 -98 -70 -134 -12 -21
-12 -25 4 -36 15 -11 15 -15 3 -25 -8 -6 -20 -10 -27 -9 -10 2 -13 -6 -11 -25
3 -25 1 -28 -17 -22 -15 4 -21 2 -21 -8 0 -14 -76 -97 -89 -97 -10 0 -41 60
-41 81 0 10 4 19 9 19 5 0 13 10 17 23 3 12 14 31 23 41 12 14 13 20 4 23 -15
5 -17 43 -3 43 6 0 10 -7 10 -15 0 -8 5 -15 10 -15 6 0 10 9 10 20 0 11 -4 20
-10 20 -5 0 -10 9 -10 20 0 11 7 20 15 20 8 0 15 -7 15 -15 0 -8 4 -15 8 -15
10 0 52 56 52 69 0 6 6 14 14 18 7 4 35 40 61 78 74 108 110 150 248 288 70
71 127 133 127 138 0 5 5 9 10 9 6 0 19 9 30 20 20 20 26 40 12 40 -4 0 -19
-13 -32 -30 -14 -16 -29 -29 -33 -30 -4 0 -18 -10 -30 -23 -12 -13 -49 -44
-82 -69 -88 -67 -179 -170 -247 -279 -25 -39 -108 -119 -124 -119 -28 0 -14
43 26 79 28 25 40 45 40 63 0 15 8 35 18 45 23 23 112 140 112 147 0 3 -7 6
-15 6 -8 0 -15 7 -15 15 0 8 5 15 11 15 13 0 48 41 49 57 0 7 20 29 45 50 25
20 45 42 45 49 0 6 18 24 41 39 34 24 38 30 24 38 -18 10 -72 -21 -115 -66
-30 -32 -40 -34 -40 -7 0 11 4 20 9 20 5 0 13 9 16 20 9 28 67 63 140 84 118
34 133 39 146 47 12 8 11 11 -1 19 -22 14 -58 12 -85 -6 -24 -15 -45 -12 -45
7 0 5 6 9 14 9 8 0 16 4 18 8 2 7 135 87 200 122 9 6 36 12 60 15 24 4 54 9
68 11 37 8 8 20 -65 27 -46 5 -68 3 -95 -11z m-463 -569 c2 -6 -10 -26 -27
-44 -29 -32 -40 -28 -21 9 5 9 12 25 15 35 6 19 27 19 33 0z m-928 -247 c6 -7
22 -11 35 -9 31 6 98 -15 90 -28 -3 -6 -37 -9 -74 -8 -63 2 -71 0 -108 -30
-36 -28 -62 -39 -62 -26 0 13 44 82 62 98 24 21 42 22 57 3z m171 -97 c0 -5
-9 -9 -20 -9 -22 0 -27 16 -7 23 15 5 27 -1 27 -14z m1493 -15 c11 -11 -3 -24
-18 -18 -8 4 -12 10 -9 15 6 11 18 12 27 3z m-1382 -77 c-13 -13 -26 -3 -16
12 3 6 11 8 17 5 6 -4 6 -10 -1 -17z m-391 -87 c32 -24 17 -43 -30 -38 -39 4
-63 33 -40 48 22 14 42 12 70 -10z m-180 -1 c0 -7 12 -9 36 -5 31 6 35 5 32
-11 -3 -14 -12 -17 -38 -16 -56 4 -63 4 -97 -3 -36 -7 -90 3 -78 14 7 7 94 28
128 31 9 0 17 -4 17 -10z m255 -19 c4 -6 -5 -10 -20 -10 -15 0 -24 4 -20 10 3
6 12 10 20 10 8 0 17 -4 20 -10z m700 -110 c23 0 19 -63 -4 -84 -21 -19 -41
-14 -41 8 0 8 7 19 14 26 11 8 12 18 5 36 -12 33 -11 54 2 32 5 -10 17 -18 24
-18z m743 -10 c15 -1 15 -2 -1 -11 -23 -14 -78 -2 -56 12 7 5 20 7 27 4 8 -3
21 -5 30 -5z m-248 -29 c0 -15 -16 -22 -35 -15 -13 5 -14 8 -3 15 18 12 38 11
38 0z m-350 -30 c0 -12 -15 -28 -38 -40 -21 -11 -22 -10 -13 6 5 10 12 26 15
35 5 16 36 16 36 -1z m-100 -34 c0 -8 -9 -24 -20 -37 -11 -13 -20 -31 -20 -40
0 -31 -30 -79 -45 -73 -29 10 -18 63 20 97 19 18 35 40 35 49 0 9 7 17 15 17
8 0 15 -6 15 -13z m-1115 -92 c0 -5 -19 -11 -42 -13 -40 -3 -53 5 -36 22 11
10 78 3 78 -9z m624 6 c11 -7 7 -12 -15 -25 l-29 -15 32 -1 c17 0 44 5 58 10
21 8 33 6 56 -7 49 -29 37 -43 -38 -45 -93 -2 -113 1 -130 17 -8 9 -28 13 -51
10 -20 -2 -40 -4 -44 -4 -5 -1 -8 -5 -8 -11 0 -5 16 -10 35 -10 42 0 46 -17 6
-31 -16 -6 -32 -20 -35 -32 -3 -13 -32 -39 -67 -62 -34 -22 -96 -73 -138 -114
-42 -40 -85 -77 -97 -81 -34 -13 -124 -11 -124 4 0 19 93 100 165 143 11 7 46
28 78 47 32 20 70 39 84 42 17 5 23 12 20 24 -3 13 3 19 24 24 31 6 39 30 13
40 -18 7 -50 -8 -56 -26 -7 -21 -40 0 -36 24 2 18 10 24 40 26 24 2 38 9 40
19 2 8 19 21 38 28 41 15 159 19 179 6z m315 -27 c9 -8 16 -20 16 -25 0 -5 11
-14 25 -19 28 -11 31 -22 12 -39 -11 -8 -18 -6 -32 9 -10 11 -26 20 -36 20
-24 0 -32 16 -25 46 7 28 18 30 40 8z m446 -44 c72 -12 110 -40 89 -66 -14
-18 -34 -18 -51 -1 -7 8 -53 18 -102 23 -91 9 -114 22 -74 42 30 14 58 14 138
2z m-1087 -36 c8 -8 -3 -34 -14 -34 -5 0 -28 -13 -51 -30 -50 -36 -58 -37 -58
-6 0 36 100 93 123 70z m926 -36 c44 -38 68 -81 77 -140 6 -36 8 -39 15 -20 9
25 41 29 58 8 8 -9 12 -66 13 -160 1 -80 5 -146 9 -146 9 0 19 26 19 50 0 9 7
24 16 31 13 11 15 25 9 81 -3 38 -13 80 -21 96 -19 37 -18 52 5 52 41 0 104
-190 71 -210 -15 -9 -17 -202 -4 -291 l6 -45 -38 4 c-22 2 -46 10 -54 17 -8 7
-24 15 -35 17 -18 3 -20 -2 -17 -37 2 -22 10 -45 19 -52 8 -7 13 -19 10 -28
-9 -23 3 -45 24 -45 23 0 25 28 4 56 -8 10 -15 27 -15 37 0 17 15 17 66 2 7
-2 18 -27 25 -55 15 -57 35 -82 45 -56 4 9 -1 25 -10 35 -30 33 -17 52 22 32
9 -5 25 -12 36 -15 17 -6 17 -8 3 -24 -8 -9 -17 -26 -19 -37 -3 -18 -15 -21
-117 -29 -67 -5 -128 -5 -150 0 -35 9 -36 10 -33 52 3 30 -1 44 -11 48 -8 3
-17 25 -21 51 -3 25 -11 52 -18 60 -16 19 4 37 31 28 16 -5 21 -15 21 -40 0
-41 9 -67 21 -59 5 3 9 19 9 36 0 21 6 31 20 35 26 7 26 33 1 33 -11 0 -22 4
-25 9 -8 13 -89 51 -107 51 -8 0 -24 7 -35 15 -19 14 -56 20 -66 10 -8 -8 7
-88 18 -92 5 -2 14 8 20 21 7 20 13 23 32 15 17 -6 22 -16 22 -42 0 -19 7 -40
15 -47 8 -7 15 -24 15 -39 1 -14 9 -50 19 -79 10 -29 15 -54 12 -56 -3 -2 -46
-5 -95 -7 l-90 -4 -2 165 c-2 91 -4 182 -6 202 -1 27 4 44 20 61 12 13 22 33
22 45 0 22 36 98 50 107 12 7 10 135 -2 155 -11 17 -10 24 17 70 14 24 13 26
-16 52 -22 18 -30 32 -25 44 10 26 70 11 115 -28z m-1064 -8 c3 -6 -7 -22 -24
-36 -37 -31 -39 -42 -8 -54 22 -9 22 -9 -3 -9 -14 -1 -31 -10 -38 -21 -7 -11
-18 -20 -26 -20 -7 0 -25 -9 -40 -21 -19 -15 -25 -26 -20 -43 12 -48 -28 -58
-179 -47 -26 2 41 118 91 155 30 23 49 10 25 -18 -53 -62 -57 -104 -5 -53 21
20 42 37 47 37 6 0 21 19 35 42 41 67 126 119 145 88z m1189 -11 c20 -12 36
-25 36 -30 0 -5 7 -9 15 -9 16 0 19 -17 9 -45 -6 -14 -8 -13 -21 5 -8 11 -23
20 -33 20 -18 0 -60 48 -60 69 0 16 15 14 54 -10z m-234 -29 c0 -10 -8 -26
-17 -36 -11 -11 -16 -29 -14 -55 2 -29 -1 -39 -12 -39 -22 0 -27 37 -10 78 8
20 19 47 24 60 10 26 29 21 29 -8z m396 3 c6 -13 23 -34 37 -47 31 -29 34 -44
10 -62 -10 -7 -13 -14 -6 -14 16 0 122 -163 129 -199 7 -32 -12 -53 -23 -25
-3 9 -18 29 -32 43 -26 26 -91 117 -91 127 0 3 -10 18 -22 34 -21 28 -21 31
-4 43 16 12 13 17 -33 56 -56 48 -59 74 -7 69 20 -2 34 -11 42 -25z m84 -8 c0
-30 -15 -33 -30 -6 -14 27 -13 31 10 31 15 0 20 -7 20 -25z m-1762 -77 c-5
-15 -48 -24 -48 -10 0 14 12 22 33 22 10 0 17 -5 15 -12z m1032 -33 c0 -8 -4
-15 -10 -15 -5 0 -10 7 -10 15 0 8 5 15 10 15 6 0 10 -7 10 -15z m-1115 -35
c-4 -19 -3 -30 4 -30 6 0 11 5 11 10 0 6 7 10 15 10 23 0 18 -38 -7 -51 -17
-9 -24 -9 -32 3 -6 8 -19 17 -28 21 -25 9 -22 27 3 27 12 0 23 8 26 20 8 32
15 23 8 -10z m1237 -35 c14 -18 26 -24 39 -20 11 4 19 2 19 -4 0 -6 -4 -11 -9
-11 -5 0 -11 -13 -14 -30 -8 -38 -25 -39 -29 -3 -2 18 -10 29 -21 31 -21 4
-57 37 -57 52 0 21 52 10 72 -15z m98 -78 c-1 -22 -68 -80 -84 -74 -20 8 -21
37 -1 37 8 0 15 5 15 10 0 6 7 10 15 10 8 0 19 9 25 20 11 21 30 19 30 -3z
m512 -40 c6 -30 -1 -47 -18 -47 -9 0 -14 11 -14 28 0 45 24 59 32 19z m-1658
-22 c-4 -8 -10 -12 -15 -9 -14 8 -10 24 6 24 9 0 12 -6 9 -15z m1596 -50 c0
-8 -4 -17 -10 -20 -6 -4 -10 5 -10 20 0 15 4 24 10 20 6 -3 10 -12 10 -20z
m100 -57 c27 -59 26 -114 -1 -128 -17 -10 -20 -20 -19 -58 4 -68 2 -72 -22
-72 -47 0 -51 11 -53 134 -1 64 1 119 6 122 10 6 23 -61 16 -80 -3 -8 0 -22 8
-33 13 -17 14 -16 20 10 4 16 5 50 2 76 -4 30 -1 53 6 60 16 16 16 16 37 -31z
m-1812 -52 c2 -9 1 -25 -3 -34 -5 -14 -7 -14 -15 -2 -14 22 -12 62 3 58 6 -3
14 -12 15 -22z m1161 -288 c-1 -48 -2 -50 -11 -25 -9 25 -4 77 7 77 3 0 5 -24
4 -52z m706 -8 c0 -22 -39 -19 -43 3 -3 15 1 18 20 15 12 -2 23 -10 23 -18z
m-694 -455 c-1 -354 -6 -443 -22 -370 -11 51 -10 701 1 731 6 15 13 24 16 21
3 -3 5 -175 5 -382z m-36 -1150 c-5 -406 -4 -383 -15 -365 -5 8 -10 56 -10
105 -1 50 -6 113 -11 140 -18 91 -22 163 -10 196 6 18 14 71 17 118 7 112 13
140 24 121 5 -8 7 -150 5 -315z m-116 216 c15 -10 7 -31 -12 -31 -7 0 -19 5
-27 10 -13 9 -13 11 0 20 18 12 21 12 39 1z m63 -678 c1 -10 3 -72 4 -138 3
-155 10 -250 26 -355 l14 -85 11 125 c6 69 9 140 6 158 -5 28 -3 32 18 32 39
0 69 11 69 25 0 17 69 30 83 16 12 -12 -6 -78 -35 -127 -16 -28 -18 -57 -18
-277 0 -154 -4 -248 -10 -252 -6 -3 -13 1 -16 9 -10 26 -60 20 -68 -6 -14 -54
2 -78 29 -41 11 15 17 15 39 5 25 -11 26 -15 26 -91 0 -83 8 -101 33 -77 10
10 17 51 22 131 7 120 14 135 51 121 15 -6 15 -8 -1 -32 -29 -45 -17 -52 97
-52 85 0 107 3 126 18 12 10 22 23 22 29 0 15 -162 15 -178 -1 -20 -20 -26 0
-24 75 2 72 -11 121 -22 84 -18 -54 -18 -53 -26 -32 -16 38 -10 73 16 105 23
27 26 38 22 81 -3 27 -13 58 -23 69 -22 25 -13 52 17 48 15 -2 24 -11 26 -24
3 -22 26 -34 49 -27 9 3 10 10 3 23 -13 25 2 33 42 25 l31 -7 -23 -18 c-20
-15 -21 -18 -5 -23 26 -11 73 -8 81 4 4 7 9 8 17 0 12 -12 10 -122 -3 -135 -6
-6 -5 -15 2 -24 8 -9 11 -41 9 -89 -2 -53 2 -85 12 -107 9 -17 18 -39 21 -48
12 -39 26 -16 26 41 0 57 2 61 43 101 57 56 111 83 148 75 42 -9 36 -32 -10
-40 -27 -4 -51 -19 -81 -50 -24 -25 -41 -48 -37 -52 4 -3 13 -1 19 5 22 22 38
13 38 -21 0 -43 -6 -48 -37 -34 -21 9 -27 8 -39 -8 -18 -24 -18 -35 1 -35 8 0
15 5 15 10 0 6 7 10 16 10 10 0 14 -7 12 -23 -1 -12 5 -33 15 -47 11 -15 17
-43 17 -75 0 -28 5 -56 11 -62 6 -6 9 -16 5 -21 -3 -6 -139 -9 -358 -8 l-353
1 2 30 c2 17 -4 115 -12 219 -8 103 -15 220 -15 260 -1 43 -6 81 -15 96 -22
38 -22 530 0 530 8 0 16 -8 17 -17z m-67 -210 c-6 -38 -9 -44 -16 -28 -10 26
-11 119 -1 129 13 14 25 -52 17 -101z m-340 -214 c24 -45 19 -85 -12 -107 -40
-28 -84 -36 -108 -18 -14 10 -17 17 -9 27 9 12 21 47 40 116 3 12 41 22 62 15
7 -3 19 -17 27 -33z m73 -116 c-4 -60 -23 -58 -24 2 -1 33 2 45 13 45 11 0 13
-12 11 -47z m1199 -12 c32 -37 28 -50 -19 -71 -40 -17 -44 -18 -70 -2 -28 16
-38 42 -17 42 6 0 22 -9 36 -20 14 -11 30 -20 34 -20 15 0 10 30 -5 36 -11 4
-36 52 -36 69 0 1 12 0 28 -3 15 -2 37 -16 49 -31z m-1254 -41 c4 -4 10 -23
14 -43 l6 -37 -39 -2 c-22 -1 -55 -2 -74 -2 -31 -1 -35 -4 -32 -24 2 -14 -5
-30 -20 -42 -49 -41 -68 -8 -21 36 26 24 27 27 10 38 -26 20 -23 74 6 85 24
10 137 3 150 -9z m1097 -29 c0 -17 -110 -103 -125 -97 -23 8 -24 84 -2 98 17
11 127 10 127 -1z m-1304 -93 c5 -17 0 -27 -22 -45 -34 -26 -40 -17 -24 32 13
40 35 46 46 13z m204 -28 c0 -15 -9 -35 -20 -45 -11 -10 -20 -24 -20 -32 0
-13 -26 -27 -75 -39 -19 -5 -25 -2 -25 10 0 23 -27 20 -35 -4 -6 -19 -72 -80
-87 -80 -15 0 -8 47 11 66 30 32 75 68 98 81 19 10 23 9 28 -8 8 -24 17 -24
33 1 10 17 10 21 -3 26 -22 9 -18 20 16 41 42 27 79 19 79 -17z m1283 4 c-1
-16 -3 -60 -4 -99 -1 -38 -5 -79 -9 -91 -5 -11 -9 -54 -11 -95 -1 -40 -7 -80
-12 -86 -5 -7 -25 -13 -43 -13 l-34 0 0 144 c0 80 -5 157 -10 172 -13 33 6 58
65 85 50 22 60 19 58 -17z m-1012 -92 c5 -23 2 -37 -8 -47 -13 -13 -12 -18 6
-41 12 -15 21 -36 21 -48 0 -38 19 -92 41 -115 12 -12 18 -25 15 -29 -4 -3
-63 -7 -133 -8 l-125 -2 6 38 c7 47 -12 70 -38 45 -18 -18 -20 -33 -7 -54 14
-22 -4 -48 -49 -71 -32 -16 -50 -19 -95 -14 l-55 7 6 71 c8 104 5 100 74 93
52 -6 63 -4 80 13 22 22 27 76 8 83 -10 3 -10 9 -1 28 7 13 12 33 10 44 -2 17
3 19 30 17 17 -2 34 2 38 7 4 8 12 8 25 1 13 -7 21 -5 31 6 9 11 27 14 63 12
48 -3 51 -4 57 -36z m1256 -78 c-9 -9 -28 6 -21 18 4 6 10 6 17 -1 6 -6 8 -13
4 -17z m332 -18 c7 -8 35 -17 64 -21 29 -3 67 -14 85 -23 28 -14 32 -21 30
-50 -2 -27 4 -38 30 -58 40 -31 40 -44 2 -88 -19 -21 -28 -40 -24 -50 5 -13 2
-15 -12 -10 -11 4 -24 11 -30 15 -6 5 -27 4 -48 -2 -73 -20 -132 23 -151 110
-9 42 -28 39 -49 -9 -25 -57 -41 -70 -89 -70 -49 0 -63 8 -68 35 -4 19 -13 20
-134 23 -72 2 -133 6 -137 10 -4 4 -3 27 2 52 5 25 12 62 15 83 4 23 11 37 20
37 8 0 15 -4 15 -10 0 -5 9 -14 20 -20 15 -8 29 -7 55 6 28 13 38 14 50 4 12
-10 15 -7 21 14 8 34 26 33 47 -4 22 -36 39 -38 70 -7 18 18 31 21 70 19 26
-2 53 1 60 6 11 9 39 18 63 21 6 0 17 -5 23 -13z"/>
<path d="M6740 4005 c0 -32 6 -51 21 -66 32 -32 47 -10 27 38 -9 21 -19 46
-22 56 -10 33 -26 17 -26 -28z"/>
<path d="M6910 3971 c0 -29 21 -61 41 -61 16 0 19 4 14 18 -4 9 -10 25 -12 35
-5 17 -43 25 -43 8z"/>
<path d="M6420 6226 c0 -4 4 -14 9 -24 5 -9 12 -26 16 -37 6 -19 7 -19 16 -2
16 28 7 62 -18 65 -13 2 -23 1 -23 -2z"/>
<path d="M3599 5976 c-24 -24 -60 -60 -79 -80 -19 -20 -42 -36 -51 -36 -19 0
-59 -36 -59 -54 0 -8 -7 -19 -15 -26 -8 -7 -15 -28 -15 -47 0 -25 -8 -41 -31
-62 -31 -29 -42 -67 -40 -141 3 -116 1 -149 -13 -182 -13 -31 -14 -38 -1 -48
12 -10 22 3 60 85 24 53 43 104 42 113 -5 37 47 153 88 197 34 36 39 47 29 57
-10 11 -9 17 4 33 16 20 116 77 155 89 34 11 12 31 -32 30 -42 -1 -56 14 -21
23 11 3 20 9 20 13 0 4 18 15 40 25 55 25 56 55 1 55 -32 0 -45 -7 -82 -44z
m-224 -376 c-5 -8 -11 -8 -17 -2 -6 6 -7 16 -3 22 5 8 11 8 17 2 6 -6 7 -16 3
-22z"/>
<path d="M2716 5812 c-34 -4 -66 -23 -118 -70 -37 -34 -55 -72 -35 -72 17 0
100 30 113 40 17 15 77 16 82 2 2 -6 14 -12 27 -12 17 0 25 6 27 22 2 17 13
25 41 31 33 8 43 6 68 -12 33 -24 77 -28 85 -6 13 33 94 3 94 -35 0 -14 -46
-23 -66 -12 -9 5 -36 7 -59 4 -25 -2 -45 0 -49 7 -13 21 -66 12 -93 -15 -21
-21 -37 -26 -87 -29 -80 -4 -134 -19 -152 -42 -38 -47 -44 -64 -50 -141 -6
-69 -5 -82 8 -82 15 0 38 39 38 65 0 8 9 15 19 15 11 0 30 13 43 30 34 43 128
110 155 110 33 0 29 -26 -7 -39 -16 -5 -30 -15 -30 -20 0 -6 -9 -11 -20 -11
-21 0 -60 -33 -60 -50 0 -5 9 -10 20 -10 20 0 30 6 66 39 9 8 32 18 52 22 20
4 49 11 63 14 36 9 102 -19 97 -42 -2 -12 -10 -17 -23 -14 -36 8 -80 6 -85 -4
-3 -5 11 -11 30 -13 19 -2 42 -9 50 -16 8 -7 23 -16 33 -19 13 -5 16 -11 9
-24 -13 -25 -5 -41 29 -59 38 -19 29 -34 -22 -34 -40 0 -53 -16 -21 -26 97
-31 122 -59 127 -142 3 -55 17 -102 43 -149 7 -12 12 -44 12 -70 0 -27 5 -54
12 -61 7 -7 17 -27 23 -44 8 -27 15 -32 35 -30 24 3 24 3 6 -11 -28 -21 -12
-36 33 -30 31 4 43 1 60 -16 11 -11 23 -21 26 -21 2 0 14 18 25 41 16 31 18
44 10 54 -8 9 -8 19 -1 32 5 10 12 25 15 33 19 50 96 144 109 131 7 -7 5 -18
-7 -36 -23 -36 -10 -52 20 -24 13 12 24 28 24 34 0 16 82 92 108 100 19 5 25
2 29 -14 7 -28 22 -26 70 8 63 46 99 61 143 61 47 0 54 19 13 38 -30 13 -123
17 -123 4 0 -4 5 -13 11 -19 7 -7 -2 -12 -33 -16 -23 -3 -44 -11 -46 -16 -5
-14 -22 -14 -22 -1 0 5 14 30 32 55 41 57 83 67 225 50 49 -6 68 -14 90 -36
19 -19 35 -26 49 -23 23 6 50 -19 39 -36 -3 -5 -15 -10 -25 -10 -10 0 -22 -4
-25 -10 -3 -5 -19 -10 -34 -10 -16 0 -42 -7 -57 -15 -16 -8 -37 -15 -46 -15
-28 0 -99 -31 -148 -64 -32 -21 -58 -31 -92 -32 -53 -2 -148 -31 -148 -45 0
-5 20 -9 44 -9 57 0 65 -13 24 -41 -18 -13 -52 -41 -76 -64 -24 -22 -56 -44
-73 -48 -36 -9 -73 -43 -58 -53 6 -4 8 -20 5 -39 -5 -22 -2 -36 9 -45 9 -8 15
-9 15 -2 0 6 21 35 47 64 113 126 183 179 273 207 55 17 189 26 201 14 17 -17
-44 -50 -104 -57 -32 -3 -65 -11 -75 -16 -9 -6 -37 -19 -62 -29 -26 -11 -84
-55 -135 -103 -49 -46 -104 -94 -122 -106 -34 -24 -73 -29 -73 -9 0 6 -23 36
-50 65 l-51 52 -78 0 -79 0 -6 38 c-11 60 -16 70 -36 75 -17 4 -18 9 -9 36 12
33 -5 106 -22 96 -12 -8 -59 25 -59 41 0 8 7 14 15 14 8 0 15 -7 15 -15 0 -8
5 -15 10 -15 20 0 9 47 -24 99 -31 48 -35 51 -41 30 -5 -15 -2 -26 9 -34 18
-14 21 -41 6 -50 -6 -3 -14 5 -20 19 -5 14 -14 26 -20 26 -5 0 -10 10 -10 23
0 12 -3 32 -6 44 -5 18 -10 21 -24 13 -12 -7 -23 -4 -39 11 -11 11 -21 24 -21
29 0 12 -112 120 -126 120 -6 0 -17 7 -24 15 -15 18 -81 20 -98 3 -7 -7 -15
-8 -24 -1 -39 29 -107 42 -230 43 -118 0 -166 -10 -118 -25 32 -10 18 -29 -26
-36 -33 -5 -83 -27 -174 -79 -8 -5 -23 -11 -32 -14 -35 -11 -17 -26 30 -26 42
0 96 19 135 47 26 19 124 44 157 41 47 -4 44 -22 -5 -28 -92 -13 -255 -119
-255 -166 0 -25 37 -16 44 11 4 14 14 25 23 25 19 0 85 39 96 57 9 15 43 18
51 4 3 -5 -1 -14 -9 -21 -8 -7 -15 -16 -15 -21 0 -19 26 -7 81 36 32 25 67 45
78 45 12 0 38 9 58 20 21 11 43 20 50 20 8 0 22 5 32 12 15 9 25 7 55 -11 20
-13 34 -26 31 -31 -2 -4 -23 -10 -46 -14 -67 -11 -161 -60 -208 -110 -25 -25
-42 -48 -39 -51 3 -3 22 3 43 15 21 12 40 19 42 16 3 -3 -16 -36 -41 -74 -25
-38 -46 -73 -46 -78 0 -4 -6 -15 -13 -23 -16 -19 -43 -92 -52 -141 -3 -19 -11
-45 -17 -57 -6 -12 -7 -30 -4 -40 7 -16 9 -15 22 10 8 15 19 27 24 27 4 0 12
14 15 32 l7 31 19 -24 c14 -18 19 -20 22 -9 3 8 13 43 23 78 9 35 21 65 25 68
4 2 11 36 15 74 4 39 13 75 20 81 8 6 14 21 14 32 0 11 17 35 38 54 28 25 43
32 63 28 18 -4 31 0 44 15 25 28 49 25 102 -10 24 -16 52 -30 63 -30 21 0 116
-93 123 -121 8 -29 -20 -24 -59 11 -31 27 -63 40 -135 54 -21 5 -28 13 -33 42
-5 26 -11 34 -22 30 -9 -3 -22 -6 -29 -6 -8 0 -23 -10 -34 -22 -17 -17 -23
-19 -36 -8 -9 7 -15 8 -15 2 0 -6 -9 -14 -20 -17 -14 -5 -20 -15 -20 -38 0
-18 -7 -41 -15 -51 -17 -22 -21 -171 -6 -181 15 -8 24 13 27 64 3 65 29 121
55 121 12 0 23 8 26 19 6 22 47 46 62 36 8 -4 1 -17 -19 -38 -37 -38 -41 -64
-8 -46 12 6 33 22 47 35 50 47 93 20 56 -33 -20 -28 -4 -39 34 -24 35 15 101
-10 101 -37 0 -12 17 -27 50 -42 59 -28 64 -48 15 -52 -50 -4 -44 -18 17 -40
29 -10 60 -28 69 -40 l17 -21 6 21 c4 12 13 22 19 22 15 0 77 -93 77 -115 0
-10 7 -32 16 -50 16 -35 16 -66 -1 -66 -5 0 -12 10 -14 23 -1 12 -14 34 -28
48 -14 13 -31 37 -39 51 -10 21 -25 30 -64 38 -28 6 -64 18 -80 26 -16 8 -46
15 -67 15 -21 0 -54 5 -73 10 -44 13 -205 -6 -221 -26 -6 -8 -19 -14 -29 -14
-10 0 -23 -7 -30 -15 -7 -8 -20 -15 -29 -15 -9 0 -50 -29 -91 -64 -73 -62 -90
-70 -90 -40 0 26 -38 15 -62 -18 -28 -40 -39 -59 -71 -123 -42 -84 -47 -86
-178 -81 -63 2 -150 9 -194 14 -44 6 -172 11 -285 12 -290 3 -290 3 -290 -15
0 -12 15 -15 78 -15 446 -1 494 -3 499 -17 10 -25 -12 -34 -92 -38 -83 -5
-154 -30 -155 -55 -3 -55 -11 -95 -20 -104 -5 -5 -10 -37 -10 -70 0 -41 -5
-65 -16 -78 -18 -19 -35 -96 -38 -168 -1 -43 -3 -46 -49 -69 -39 -20 -51 -22
-70 -13 -51 26 -81 18 -107 -25 -18 -31 -21 -46 -15 -87 5 -44 4 -48 -12 -41
-181 73 -263 63 -263 -31 0 -37 -5 -47 -30 -66 -20 -14 -30 -31 -30 -47 0 -14
-4 -31 -8 -37 -8 -12 -54 -44 -63 -44 -9 0 -109 178 -109 194 0 14 31 46 45
46 17 0 95 42 95 51 0 5 6 9 14 9 18 0 30 17 17 24 -5 4 -16 -1 -24 -9 -9 -8
-25 -15 -37 -15 -11 0 -23 -7 -26 -15 -4 -10 -20 -15 -45 -15 -21 0 -39 -4
-39 -10 0 -5 -6 -10 -13 -10 -20 0 -47 -33 -47 -58 0 -19 25 -82 42 -107 4 -5
23 -29 42 -51 20 -23 36 -48 36 -56 0 -23 -54 -41 -98 -34 -31 4 -45 1 -75
-20 -21 -14 -42 -36 -47 -49 -5 -12 -12 -77 -16 -143 -7 -118 -6 -120 16 -127
38 -12 45 8 46 133 1 148 13 172 81 172 44 0 45 0 38 -30 -4 -17 -2 -36 3 -43
9 -12 21 -64 43 -197 14 -80 20 -94 47 -98 16 -2 23 3 28 23 8 32 -2 100 -20
140 -8 17 -22 48 -31 70 -9 22 -20 48 -25 57 -6 10 -10 23 -10 29 0 17 42 53
104 89 74 42 86 60 79 121 -5 43 -3 49 12 49 10 0 27 -7 37 -17 23 -21 26 -18
36 48 l8 54 49 0 c28 0 76 -9 107 -19 45 -14 61 -15 78 -6 20 10 21 17 15 74
-6 49 -4 65 8 75 12 9 21 10 36 1 12 -6 21 -15 21 -20 0 -5 9 -12 20 -15 15
-5 31 2 56 24 61 54 74 41 74 -74 0 -76 6 -105 21 -105 5 0 9 40 9 88 0 106 8
120 70 124 l45 3 -2 -49 c-1 -27 -6 -53 -12 -59 -17 -17 -13 -64 5 -71 9 -3
30 -6 47 -6 38 -1 82 -33 70 -52 -4 -7 -15 -35 -24 -61 -19 -55 -23 -50 69
-78 24 -7 46 -17 49 -22 3 -4 -9 -26 -27 -48 -35 -45 -34 -63 7 -81 55 -25 93
-77 93 -130 0 -20 -7 -43 -15 -52 -8 -8 -15 -22 -15 -30 0 -18 -41 -100 -52
-104 -4 -2 -8 -10 -8 -18 0 -8 -5 -23 -12 -34 -7 -10 -9 -22 -5 -26 12 -13 34
16 72 94 21 42 45 92 54 110 8 17 21 32 28 32 10 0 13 -26 11 -112 -3 -133 3
-165 35 -170 19 -3 22 -9 22 -45 0 -53 -14 -59 -30 -14 -14 41 -20 34 -31 -34
-7 -50 -37 -108 -68 -134 -19 -16 -21 -76 -3 -96 18 -21 29 -35 76 -97 34 -45
49 -57 74 -60 21 -2 33 -9 35 -21 5 -27 -52 -74 -99 -82 -22 -4 -53 -13 -67
-21 -15 -8 -34 -14 -43 -14 -9 0 -30 -7 -45 -15 -16 -8 -37 -15 -46 -15 -13 0
-18 -8 -18 -29 0 -17 4 -32 9 -35 17 -11 51 -86 45 -100 -3 -8 -22 -16 -42
-19 -118 -16 -177 -30 -254 -61 -105 -42 -124 -54 -137 -82 -19 -43 16 -45 97
-8 31 15 64 32 72 39 20 15 127 55 150 55 10 0 23 7 30 15 30 36 63 9 40 -33
-29 -53 -41 -97 -50 -177 -6 -50 -14 -117 -19 -150 -5 -33 -10 -99 -10 -147
-1 -48 -6 -99 -11 -114 -15 -38 2 -52 30 -24 17 17 29 21 52 16 17 -3 34 -6
38 -6 5 0 13 -14 19 -31 11 -32 31 -31 31 1 0 24 18 35 50 31 32 -4 42 -14 44
-43 1 -28 29 -31 35 -3 2 11 12 31 23 45 19 24 19 25 -1 41 -13 11 -22 34 -27
67 -6 44 -4 51 14 61 11 6 37 11 56 11 20 0 36 4 36 9 0 12 -57 34 -74 28 -25
-10 -36 16 -36 85 0 79 1 80 88 82 l57 1 1 -70 c0 -38 -3 -81 -7 -95 -3 -14
-2 -56 2 -95 10 -81 -2 -101 -54 -89 -22 5 -28 3 -25 -7 3 -9 16 -13 36 -11
26 3 33 -2 47 -29 l17 -32 22 27 c20 26 24 27 84 20 71 -8 92 -22 92 -64 0
-35 -13 -45 -30 -25 -15 18 -63 20 -93 3 -12 -6 -49 -11 -82 -10 -34 1 -71 -4
-85 -11 -18 -9 -30 -10 -42 -3 -12 7 -24 6 -42 -4 -23 -12 -28 -11 -45 4 -25
23 -73 23 -107 1 -26 -17 -28 -17 -41 1 -7 10 -13 21 -13 25 0 17 -67 15 -103
-4 -31 -16 -49 -18 -93 -13 -71 8 -94 -4 -94 -49 0 -31 -5 -37 -37 -51 -37
-16 -38 -17 -13 -24 25 -8 71 -2 80 9 22 28 68 51 101 51 31 0 43 6 61 30 28
38 59 38 88 0 16 -21 32 -30 51 -30 16 0 29 4 29 9 0 19 36 17 72 -3 34 -19
38 -20 70 -5 23 12 40 14 57 7 18 -6 29 -4 42 8 13 12 26 14 51 8 49 -11 88
-6 123 16 45 28 60 25 85 -15 12 -19 23 -35 26 -35 2 0 29 14 59 30 66 35 71
36 78 10 6 -23 25 -25 70 -7 20 9 55 12 95 9 34 -2 62 0 62 4 -1 5 -23 20 -51
33 -48 22 -71 23 -126 6 -22 -7 -23 -5 -23 66 0 88 -8 106 -39 89 -12 -6 -30
-8 -41 -5 -10 3 -28 0 -39 -7 -11 -7 -23 -10 -26 -7 -9 10 -12 103 -4 127 10
26 23 27 62 7 25 -13 31 -13 53 1 21 14 24 24 24 74 0 49 -3 60 -19 65 -22 7
-36 38 -26 55 8 12 -13 80 -25 80 -4 0 -14 -10 -22 -22 -12 -18 -25 -23 -78
-24 -78 -3 -107 8 -61 24 17 6 31 16 31 21 0 17 -60 13 -66 -4 -7 -17 -40 -20
-49 -5 -3 6 -2 10 4 10 6 0 25 16 43 36 77 86 95 97 118 69 16 -19 40 -19 40
0 0 9 -7 27 -16 41 -15 23 -15 26 0 43 9 9 16 21 16 24 0 13 -38 7 -50 -8 -16
-19 -49 -19 -76 -1 -11 8 -40 16 -65 18 l-44 3 0 55 c0 65 11 71 79 41 25 -12
51 -21 58 -21 7 -1 31 -14 53 -30 22 -16 51 -36 65 -46 27 -18 67 -74 72 -101
2 -13 -8 -20 -45 -28 -28 -6 -55 -19 -65 -32 -9 -12 -26 -23 -36 -25 -11 -1
-21 -8 -23 -15 -3 -9 11 -12 49 -10 46 1 58 6 86 35 24 24 37 31 45 23 17 -17
50 -258 56 -416 1 -21 4 -26 10 -16 12 18 14 380 3 394 -5 7 -12 31 -16 53
-10 70 -36 108 -130 192 -27 23 -54 42 -61 42 -7 0 -18 7 -25 15 -7 8 -23 15
-35 15 -13 0 -36 7 -51 15 -16 8 -50 15 -76 15 -26 0 -50 5 -53 10 -9 15 -58
12 -81 -5 -10 -8 -27 -15 -37 -15 -35 0 -117 -57 -117 -80 0 -16 27 -12 34 5
3 8 12 15 19 15 8 0 20 6 26 14 14 16 139 32 152 19 5 -5 7 -35 3 -66 l-7 -57
-68 0 c-37 0 -71 -4 -74 -10 -8 -12 -55 -13 -55 -1 0 5 -9 11 -21 14 -15 4
-19 11 -14 25 4 14 -2 28 -20 46 -31 31 -33 63 -2 71 106 29 233 99 242 132 3
13 10 23 15 23 19 0 10 27 -12 37 -13 6 -26 25 -33 49 -8 31 -24 49 -77 89
-37 27 -67 57 -67 66 -1 9 17 29 38 44 27 18 42 37 47 58 3 18 21 44 39 60 50
41 53 76 14 139 -17 29 -39 58 -47 64 -10 7 -13 19 -8 37 9 37 36 35 36 -2 0
-20 8 -34 25 -45 14 -9 25 -25 25 -35 0 -10 6 -21 14 -24 8 -3 20 -22 27 -41
9 -25 20 -37 38 -40 61 -12 798 -10 805 3 18 29 -94 52 -251 52 -65 0 -156 -2
-203 -3 -47 -2 -147 -2 -222 0 -127 2 -138 3 -138 21 0 10 -17 30 -39 46 -41
28 -44 42 -13 78 18 20 42 23 42 3 0 -7 6 -19 14 -26 8 -6 16 -21 18 -33 2
-16 10 -22 28 -22 20 0 26 6 30 30 4 25 10 30 35 30 25 0 31 -5 35 -30 6 -36
42 -43 48 -10 2 11 12 27 22 35 10 8 21 32 24 53 7 36 6 38 -13 27 -18 -9 -23
-6 -37 22 -12 24 -14 36 -6 49 14 21 5 30 -23 23 -18 -4 -25 1 -35 27 -11 25
-11 34 -2 37 7 2 12 10 12 17 0 8 12 15 28 17 21 2 28 9 30 31 4 33 21 34 44
3 17 -24 13 -39 -13 -48 -27 -10 -30 -56 -5 -74 20 -14 21 -13 24 22 2 26 9
38 23 41 10 3 19 14 19 24 0 25 18 33 37 17 14 -11 15 -10 9 9 -8 25 3 51 45
104 50 63 32 68 -32 9 -24 -22 -47 -40 -51 -40 -4 0 -10 10 -14 23 -3 12 -13
29 -21 38 -16 19 -9 24 70 43 93 22 36 49 -83 39 -89 -7 -100 -11 -76 -28 18
-13 18 -15 -4 -44 -21 -30 -53 -41 -65 -21 -7 12 12 51 33 66 23 17 -5 29 -33
14 -18 -10 -31 -10 -56 -1 -35 12 -108 15 -134 5 -9 -4 -21 -17 -26 -30 -9
-25 -42 -33 -55 -13 -14 24 -24 -19 -24 -109 0 -63 -4 -92 -11 -90 -14 5 -49
104 -49 139 0 15 -7 32 -15 39 -8 7 -15 23 -15 36 0 23 -34 45 -102 68 -22 7
-23 28 -3 66 14 27 14 32 -2 57 -24 37 -44 52 -70 53 -32 0 -35 13 -18 79 27
104 17 182 -19 152 -21 -18 -29 15 -11 49 8 16 15 53 15 82 0 32 6 62 15 75 9
13 18 52 22 88 3 36 10 68 14 71 5 3 9 23 9 45 0 33 3 39 21 39 11 0 29 -5 39
-10 11 -6 118 -11 252 -13 l233 -2 -4 -65 c-2 -36 -9 -76 -16 -90 -22 -45 -36
-413 -16 -433 13 -13 -42 -67 -68 -67 -38 0 -51 37 -39 115 5 39 12 111 14
160 3 50 12 105 20 122 17 37 16 211 -1 216 -5 1 -13 -27 -17 -63 -4 -36 -12
-81 -17 -100 -6 -19 -11 -71 -11 -116 0 -50 -6 -96 -15 -117 -9 -23 -15 -68
-15 -121 0 -47 -4 -87 -8 -90 -5 -3 -21 8 -37 24 -27 28 -28 28 -54 12 -14 -9
-32 -22 -39 -29 -16 -15 -38 -17 -47 -4 -3 6 4 26 15 46 17 31 20 54 20 165 0
71 -4 131 -9 134 -14 9 -21 -20 -21 -89 0 -35 -5 -76 -10 -91 -6 -15 -11 -65
-12 -111 -1 -86 -8 -104 -33 -83 -18 15 -35 5 -35 -21 0 -53 96 -166 145 -171
46 -5 40 29 -10 56 -60 32 -74 51 -66 89 6 28 11 32 41 35 19 2 39 7 45 11 24
19 45 19 66 0 26 -23 47 -24 76 -4 18 13 22 13 33 0 16 -19 41 -19 66 0 25 19
49 19 79 -1 27 -18 129 -14 148 5 15 15 43 14 70 -3 39 -26 98 -29 130 -8 26
18 31 18 59 4 38 -18 141 -11 167 12 23 21 33 20 62 -5 19 -17 32 -19 64 -14
22 3 47 13 57 22 18 16 48 12 48 -7 0 -5 13 -10 29 -10 16 0 36 -7 45 -15 9
-9 17 -11 21 -5 14 23 35 10 34 -22 -1 -46 -15 -87 -22 -68 -21 59 -19 57 -27
30 -5 -14 -8 -51 -9 -82 -1 -64 -11 -71 -47 -37 -20 19 -36 21 -166 24 -78 1
-153 0 -165 -2 -20 -4 -21 -10 -22 -123 -1 -69 3 -121 8 -125 6 -3 8 -19 5
-34 -4 -16 -2 -37 4 -46 6 -12 5 -27 -6 -48 -11 -23 -13 -49 -8 -113 4 -54 3
-84 -4 -84 -17 0 -11 -28 8 -34 9 -3 43 -2 75 3 32 4 77 5 101 1 59 -9 82 2
90 40 11 56 7 90 -9 90 -8 0 -15 8 -15 19 0 10 -6 24 -14 30 -7 6 -16 25 -20
41 -6 30 -20 37 -45 21 -10 -6 -10 -13 -2 -29 9 -16 6 -24 -14 -44 -20 -20
-23 -31 -18 -61 5 -32 8 -35 25 -26 14 8 24 7 36 -3 14 -11 15 -11 8 7 -25 60
-17 77 25 55 47 -26 4 -110 -57 -110 -28 0 -104 57 -104 78 0 5 11 19 25 32
17 16 25 34 25 56 0 23 6 37 20 44 29 16 27 63 -5 84 -28 18 -31 45 -14 95 9
27 16 32 38 29 20 -2 27 -9 29 -30 4 -34 42 -41 42 -8 0 10 11 29 24 42 17 15
26 36 28 63 2 33 8 41 30 49 40 14 55 -12 63 -113 7 -87 25 -96 25 -13 0 31 4
42 15 42 17 0 18 -4 15 -75 -1 -27 -6 -55 -11 -61 -4 -5 -11 -55 -14 -110 -7
-119 -12 -147 -25 -139 -6 4 -10 63 -10 136 0 116 -2 131 -20 149 -12 12 -20
33 -20 55 0 35 0 35 -24 19 -14 -8 -26 -27 -28 -42 -2 -17 -10 -28 -25 -32
-16 -3 -20 -9 -14 -19 5 -8 5 -27 0 -45 -13 -44 -11 -50 7 -32 20 20 34 12 34
-19 0 -12 7 -25 15 -29 8 -3 15 -16 15 -28 0 -13 7 -34 16 -46 11 -16 14 -34
10 -60 -26 -156 -47 -485 -53 -822 -3 -173 -9 -319 -14 -324 -5 -6 -18 -1 -33
13 -27 25 -39 58 -25 67 5 3 9 9 9 15 0 18 -22 9 -55 -24 -46 -43 -75 -153
-65 -246 5 -54 3 -67 -13 -88 -17 -22 -18 -26 -4 -41 19 -20 11 -72 -18 -115
-17 -26 -17 -27 8 -38 16 -7 27 -22 29 -36 4 -34 22 -29 28 7 7 44 24 42 28
-3 4 -44 27 -46 27 -3 0 20 10 37 33 56 l34 28 -31 7 c-26 5 -31 12 -32 36 -1
16 -2 35 -3 42 -1 7 12 12 34 12 31 0 36 -4 41 -30 5 -21 7 -12 8 34 1 56 -1
62 -16 56 -41 -17 -54 -17 -67 0 -12 17 -13 17 -19 -4 -3 -11 -12 -21 -21 -21
-19 0 -29 36 -23 78 7 45 15 54 37 42 15 -8 18 -17 13 -43 -6 -32 -6 -32 15
-13 12 10 24 27 28 38 4 15 12 18 33 13 19 -4 32 -1 41 10 17 20 8 28 -30 27
-35 -1 -41 23 -12 57 l17 20 27 -22 c26 -21 27 -26 28 -127 2 -105 -11 -228
-27 -252 -4 -7 -10 -119 -13 -248 -4 -183 -8 -240 -20 -257 -12 -19 -12 -24 3
-41 9 -10 17 -35 17 -55 0 -26 4 -37 15 -37 9 0 15 9 15 23 0 12 9 35 19 50
16 24 18 42 13 117 -6 112 0 140 32 140 25 0 56 -23 56 -42 0 -5 -9 -23 -21
-40 -12 -16 -19 -31 -16 -34 9 -9 64 51 71 78 5 23 1 30 -44 57 -31 19 -52 40
-56 56 -13 51 18 76 36 30 12 -30 59 -74 80 -75 8 0 22 -5 30 -10 13 -8 12
-11 -5 -24 -18 -13 -12 -15 59 -21 60 -6 83 -13 102 -30 29 -27 15 -37 -40
-28 -44 7 -109 -23 -159 -74 -61 -61 -46 -71 33 -22 50 31 89 35 81 8 -3 -8
-5 -41 -5 -74 l-1 -60 -45 -5 c-44 -5 -45 -6 -45 -40 0 -34 1 -35 40 -34 174
4 304 13 326 22 25 10 69 90 69 127 0 9 12 28 26 42 32 31 25 49 -27 75 -38
18 -35 20 49 37 75 15 113 14 127 -6 12 -16 35 -11 35 7 0 5 -11 21 -25 35
-29 29 -57 31 -132 12 -53 -14 -73 -9 -73 20 0 17 -6 16 -41 -4 -25 -15 -31
-15 -38 -4 -5 8 -16 11 -30 6 -25 -7 -25 -4 -7 55 7 25 18 45 25 44 29 -3 30
-4 21 -30 -6 -14 -10 -32 -10 -40 0 -19 26 -18 34 1 7 19 20 19 39 1 8 -9 24
-12 36 -9 23 6 26 14 10 30 -7 7 2 13 33 18 24 4 48 7 53 5 6 -2 57 -4 115 -5
114 -2 159 7 142 28 -8 9 -54 12 -175 12 -137 -1 -168 -4 -190 -18 -14 -9 -28
-13 -31 -8 -7 10 30 51 68 76 39 26 18 43 -27 21 -19 -9 -44 -16 -54 -16 -10
0 -36 -9 -58 -20 -64 -33 -73 5 -16 68 33 36 27 49 -14 28 -44 -23 -54 -45
-55 -123 0 -72 -7 -86 -29 -60 -6 8 -29 19 -51 26 -33 10 -45 9 -69 -3 -16 -9
-32 -21 -34 -28 -4 -10 -9 -9 -19 3 -7 9 -23 19 -36 23 -12 4 -22 13 -22 20 0
7 -9 21 -20 31 -25 23 -25 31 1 38 27 7 15 27 -16 27 -29 0 -41 16 -25 35 10
12 10 18 0 30 -7 8 -11 15 -9 16 2 0 40 2 84 5 44 2 99 6 122 9 48 5 63 -10
63 -65 0 -36 23 -37 28 -1 2 12 10 25 18 28 16 6 19 33 4 33 -5 0 -10 6 -10
13 0 7 -9 29 -20 50 -15 28 -20 56 -20 114 0 75 -11 115 -26 100 -4 -4 -8 -30
-9 -57 -1 -53 -9 -70 -26 -53 -7 7 -6 18 2 37 7 14 9 29 5 34 -4 4 -45 7 -92
7 -77 0 -84 -2 -84 -20 0 -18 6 -20 54 -17 66 4 96 -10 96 -44 0 -15 11 -40
25 -56 29 -34 26 -43 -20 -62 -27 -12 -185 -21 -185 -11 0 14 33 75 40 75 6 0
10 14 10 30 0 38 -14 39 -29 2 -22 -52 -42 -82 -52 -77 -13 9 -11 49 3 63 17
17 22 176 7 247 -16 79 -16 195 0 385 15 187 19 210 32 189 5 -7 9 -156 9
-329 0 -286 7 -381 23 -321 5 22 43 42 65 33 7 -2 20 -19 29 -36 l17 -31 10
28 c8 21 16 27 40 27 17 0 38 4 46 10 12 8 12 11 -3 28 -9 10 -17 31 -17 45 0
15 -4 35 -10 45 -10 19 -35 78 -44 105 -3 9 -12 17 -20 17 -7 0 -16 7 -20 15
-5 14 -56 22 -56 9 0 -4 11 -17 25 -30 29 -26 32 -42 9 -51 -18 -7 -64 33 -64
57 0 9 6 22 12 28 10 10 10 17 0 32 -14 23 -16 56 -4 64 11 7 109 -66 145
-107 54 -61 82 -112 87 -156 7 -62 30 -67 30 -7 0 26 -4 54 -9 64 -4 9 -19 39
-32 66 -36 73 -118 139 -211 170 -16 5 -18 22 -17 178 0 95 8 256 17 358 l17
185 53 -3 c29 -2 58 1 66 7 8 7 23 8 47 1 18 -6 44 -10 56 -10 12 0 33 -4 48
-10 23 -9 25 -12 13 -32 -10 -18 -13 -133 -13 -521 0 -487 0 -499 -20 -513
-17 -13 -20 -28 -23 -107 -3 -111 9 -242 23 -242 16 0 23 43 33 195 7 98 16
158 28 185 15 36 17 84 16 519 0 330 -4 482 -11 489 -16 16 -14 22 17 37 22
11 193 14 912 16 487 1 959 5 1049 8 167 5 226 19 135 31 -27 3 -57 10 -66 15
-11 7 -26 6 -42 -1 -14 -7 -36 -8 -53 -4 -15 4 -71 7 -123 6 -104 -3 -153 5
-147 23 2 6 19 10 38 8 19 -1 44 3 57 10 20 10 29 10 52 -4 25 -14 31 -14 41
-2 6 8 25 14 41 14 19 0 28 4 25 13 -5 17 -440 17 -477 0 -16 -7 -73 -11 -145
-10 -66 1 -137 -2 -157 -6 -34 -7 -38 -6 -38 12 0 32 11 51 30 51 25 0 31 11
21 46 -4 17 -15 31 -27 33 -23 4 -34 19 -34 49 0 12 -6 22 -13 22 -17 0 -37
-20 -37 -38 0 -7 -14 -26 -31 -41 -24 -23 -29 -33 -23 -54 4 -20 13 -27 29
-27 20 0 24 6 27 38 2 30 7 38 26 40 34 5 39 -24 9 -56 -14 -15 -27 -36 -29
-47 -3 -19 -11 -20 -173 -19 -94 1 -179 2 -190 3 -11 0 -163 -1 -337 -2 -221
-1 -320 -5 -328 -13 -22 -22 94 -24 862 -22 416 1 760 -1 764 -4 13 -13 -49
-29 -105 -27 -31 1 -400 1 -820 0 -513 -1 -770 -5 -783 -12 -15 -8 -24 -7 -36
4 -15 12 -26 13 -80 1 -39 -8 -72 -10 -86 -5 -12 5 -34 7 -49 4 -22 -4 -27 -2
-27 16 0 18 6 21 38 21 45 0 72 14 47 24 -9 3 -33 6 -52 6 l-35 0 5 133 c3 72
6 133 6 135 1 1 10 2 21 2 16 0 20 6 19 28 -1 15 -1 32 1 37 6 23 -1 35 -21
35 -15 0 -19 4 -15 16 3 9 6 20 6 25 0 5 9 9 20 9 11 0 20 -4 20 -9 0 -10 50
-45 56 -39 2 3 0 18 -5 35 -8 27 -5 35 15 54 13 12 24 28 24 36 0 18 -27 17
-34 -2 -3 -8 -10 -15 -16 -15 -5 0 -10 7 -10 15 0 17 -16 20 -25 5 -3 -6 1
-13 9 -16 16 -6 23 -34 8 -34 -4 0 -20 6 -35 13 -22 10 -27 18 -25 42 3 27 6
30 43 32 22 1 64 0 93 -3 55 -6 66 -21 38 -53 -7 -9 -21 -37 -31 -63 -10 -27
-22 -48 -26 -48 -5 0 -9 -16 -9 -35 0 -28 4 -35 19 -35 21 0 53 -42 61 -80 3
-14 13 -26 25 -28 11 -2 32 -16 48 -30 l27 -26 0 37 c0 20 -5 37 -11 37 -5 0
-15 14 -21 30 -6 18 -19 32 -33 36 -27 7 -40 43 -19 51 8 3 14 9 14 14 0 4 15
23 34 42 42 43 44 56 52 543 5 288 4 373 -6 379 -17 10 -30 -6 -41 -51 -4 -22
-9 -183 -10 -360 l-1 -321 -56 -1 c-31 -1 -64 -2 -72 -3 -8 -1 -37 -1 -64 -1
l-49 2 7 52 c11 78 29 107 68 106 43 -1 139 24 141 37 4 18 -96 18 -131 -1
-17 -9 -35 -14 -40 -10 -5 6 -17 316 -24 631 0 33 4 79 11 118 0 4 20 8 44 8
23 0 53 0 67 0 97 0 250 -32 250 -52 0 -7 -64 -39 -105 -53 -18 -7 -19 -8 -3
-17 12 -7 26 -5 47 6 17 8 41 15 54 15 14 0 30 7 37 15 26 31 42 22 132 -75 9
-10 19 -28 23 -41 7 -20 8 -21 17 -5 11 20 -16 94 -39 109 -18 11 -16 27 3 27
20 0 122 -104 135 -137 10 -28 29 -22 29 10 0 23 37 63 48 52 4 -3 0 -10 -7
-14 -11 -7 -11 -14 3 -41 9 -18 16 -38 16 -45 0 -7 14 -37 30 -68 17 -31 30
-63 30 -71 0 -9 9 -20 20 -26 27 -15 40 14 40 89 0 57 10 76 26 50 4 -7 7 -60
8 -120 2 -109 8 -141 20 -94 8 33 32 32 41 -2 3 -15 17 -37 31 -50 18 -17 24
-32 24 -67 0 -58 13 -65 39 -20 23 39 27 69 10 79 -6 4 -8 13 -5 20 3 8 -4 37
-15 67 -10 29 -19 59 -19 67 0 48 -207 292 -274 322 -11 5 -33 17 -47 27 -74
50 -96 62 -111 62 -39 0 -11 70 37 93 41 19 95 7 138 -32 15 -13 27 -21 27
-15 0 5 4 15 9 23 11 17 44 0 78 -39 12 -15 40 -35 60 -43 47 -20 163 -128
163 -151 0 -28 25 -12 28 17 2 19 -6 39 -27 64 -36 43 -27 64 15 37 37 -24 44
-33 44 -63 0 -14 6 -32 14 -40 8 -9 38 -61 66 -115 28 -55 59 -105 69 -112 12
-8 21 -32 25 -63 4 -28 11 -53 16 -56 6 -3 10 -27 11 -53 0 -26 6 -65 13 -87
l12 -40 12 56 c15 64 9 219 -8 229 -7 4 -10 18 -7 31 l4 24 8 -22 c9 -29 23
-29 30 0 7 28 -36 120 -66 141 -29 20 -20 48 18 58 37 10 83 64 83 97 0 42
-72 93 -128 91 -64 -3 -72 -1 -82 25 -6 17 -28 33 -67 51 -32 14 -67 34 -78
44 -20 18 -21 18 -45 0 l-25 -19 28 -10 c30 -12 28 -31 -4 -31 -10 0 -19 -4
-19 -10 0 -5 11 -10 25 -10 14 0 25 5 25 10 0 17 55 11 71 -7 9 -10 33 -31 53
-46 20 -15 36 -34 36 -42 0 -25 -39 -16 -57 12 -10 16 -25 36 -33 45 -18 22
-60 24 -60 3 0 -8 3 -15 8 -15 12 0 82 -68 82 -79 0 -6 5 -11 10 -11 6 0 10
-9 10 -20 0 -18 -5 -16 -37 15 -20 19 -42 35 -48 35 -7 0 -15 6 -18 14 -3 7
-26 24 -52 36 -26 13 -61 37 -79 54 -47 47 -122 106 -134 106 -6 0 -12 -8 -14
-17 -3 -14 -13 -17 -57 -14 -30 1 -61 6 -70 11 -9 4 -34 12 -56 17 -51 10 -51
27 0 31 29 3 43 -1 52 -14 19 -25 110 -25 129 0 12 17 19 18 91 7 112 -17 126
-17 130 -5 6 17 -70 44 -125 44 -53 0 -71 12 -53 33 8 10 2 13 -24 13 -26 0
-35 -5 -37 -20 -5 -31 -51 -39 -147 -25 -68 10 -80 15 -63 22 12 6 22 14 22
19 0 12 -25 10 -56 -7 -16 -8 -47 -15 -70 -15 -22 0 -60 -9 -84 -21 -64 -31
-138 -51 -162 -43 -11 3 -38 0 -60 -7 -26 -8 -42 -9 -49 -2 -29 29 99 95 231
118 41 7 116 20 165 29 50 8 100 18 112 22 24 7 123 -24 123 -38 0 -4 10 -8
23 -8 22 1 22 1 2 16 -16 12 -18 18 -7 34 18 29 15 40 -11 40 -13 0 -27 4 -32
9 -6 5 -23 11 -39 13 -49 5 -42 25 10 30 41 3 48 0 66 -25 16 -23 26 -27 47
-23 14 3 20 3 14 0 -7 -3 -13 -11 -13 -19 0 -15 55 -40 69 -30 6 3 11 1 11 -4
0 -6 -4 -11 -10 -11 -5 0 -10 -9 -10 -20 0 -21 19 -27 36 -10 14 14 52 1 60
-22 11 -35 29 -13 26 31 -3 36 -1 41 17 41 11 0 34 -17 52 -40 46 -58 55 -52
53 31 -1 67 0 72 30 100 17 16 41 29 52 29 12 0 48 14 80 30 41 22 72 31 109
31 43 1 52 4 62 26 18 38 -22 49 -107 28 -50 -12 -73 -14 -94 -6 -30 12 -119
15 -129 4 -4 -3 8 -19 25 -34 l33 -27 -24 -26 c-23 -24 -24 -24 -47 -8 -13 9
-23 24 -24 32 -1 54 -70 174 -85 149 -13 -21 -26 -8 -20 20 5 26 1 35 -34 67
-23 20 -41 43 -41 50 0 8 -4 14 -10 14 -5 0 -27 15 -47 34 -21 18 -50 36 -65
40 -15 3 -39 22 -54 42 -23 30 -32 35 -56 30 -20 -4 -28 -2 -28 9 0 23 -34 35
-98 35 -44 0 -61 -4 -66 -15 -3 -8 -13 -15 -23 -15 -10 0 -31 -12 -48 -27 -29
-28 -53 -44 -90 -62 -51 -24 -145 -114 -201 -191 -47 -66 -66 -85 -85 -85 -38
0 -36 36 4 79 22 23 33 43 30 55 -3 12 6 27 29 44 31 25 32 27 14 40 -17 13
-16 15 14 46 30 30 31 33 15 45 -18 13 -17 15 4 50 l23 36 84 0 c65 0 84 3 84
14 0 14 -42 26 -92 26 -18 0 -27 4 -23 10 4 6 15 8 24 5 10 -3 24 1 31 10 7 8
28 15 46 15 36 0 42 8 22 28 -16 16 -50 15 -74 -3 -27 -21 -54 -19 -54 4 0 32
29 46 104 48 40 1 72 6 74 12 2 6 -4 11 -13 11 -9 0 -15 6 -12 13 4 12 40 11
45 -2 1 -5 9 -17 17 -27 13 -18 14 -17 21 10 6 26 3 34 -31 63 -21 18 -44 33
-52 33 -7 0 -13 7 -13 15 0 11 11 15 38 15 20 0 42 -4 47 -8 13 -9 45 -70 45
-85 0 -13 40 -97 46 -97 3 0 9 11 14 25 10 26 -4 75 -22 75 -4 0 -8 7 -8 16 0
9 3 14 8 12 50 -24 63 -35 76 -62 43 -88 102 -175 120 -176 10 0 40 -21 65
-47 99 -101 121 -114 121 -73 0 26 -129 150 -155 150 -22 0 -29 22 -11 32 31
17 16 45 -51 102 -38 31 -79 67 -93 81 -14 14 -30 25 -35 25 -6 0 -24 14 -42
30 -30 28 -37 30 -112 30 -44 0 -83 5 -86 10 -3 6 0 12 7 14 70 19 120 30 157
35 56 8 65 28 17 37 -57 10 -127 -5 -166 -36 -19 -15 -45 -30 -57 -34 -12 -4
-25 -17 -29 -28 -3 -12 -11 -26 -16 -32 -23 -27 -104 -145 -115 -167 -7 -13
-21 -46 -33 -74 -12 -27 -25 -59 -30 -70 -5 -11 -12 -40 -16 -64 -9 -59 -31
-111 -48 -111 -15 0 -26 21 -26 50 0 11 -10 28 -22 39 -12 12 -23 31 -25 43
-16 119 -39 239 -54 278 -20 56 -75 143 -106 171 -62 55 -88 62 -228 63 -71 1
-143 0 -159 -2z m218 -174 c9 -35 -9 -44 -49 -25 -48 23 -46 47 4 47 32 0 40
-4 45 -22z m718 -7 c15 -18 15 -19 -5 -24 -12 -2 -30 -8 -39 -12 -23 -9 -35
19 -18 40 17 20 42 19 62 -4z m-932 -6 c0 -14 -110 -114 -115 -105 -14 23 58
108 93 109 12 1 22 -1 22 -4z m426 -13 c24 -18 32 -52 13 -52 -7 0 -28 10 -47
22 -20 12 -50 22 -66 23 -16 0 -31 5 -33 11 -6 19 106 15 133 -4z m-40 -74 c9
-18 24 -49 34 -68 10 -19 24 -57 30 -84 6 -27 16 -56 22 -63 14 -17 -2 -36
-27 -31 -16 3 -39 40 -71 113 -9 22 -27 51 -39 65 -23 25 -39 82 -28 94 4 3
19 6 35 6 23 0 32 -7 44 -32z m562 15 c2 -8 -5 -13 -17 -13 -21 0 -35 13 -24
24 10 10 36 3 41 -11z m-108 -29 c0 -8 -7 -14 -15 -14 -15 0 -21 21 -9 33 10
9 24 -2 24 -19z m-90 -118 c0 -15 -14 -35 -21 -30 -15 9 -10 34 6 34 8 0 15
-2 15 -4z m-1025 -56 c11 -12 26 -18 35 -15 24 8 50 -4 50 -22 0 -12 -8 -14
-32 -10 -52 9 -111 24 -138 35 l-25 11 25 1 c14 0 32 5 40 10 21 13 24 13 45
-10z m265 -42 c28 -9 40 -19 40 -31 0 -16 -5 -17 -32 -12 -18 4 -33 8 -33 9 0
0 -9 11 -19 24 -22 25 -13 27 44 10z m1215 -18 c3 -6 -1 -13 -10 -16 -19 -8
-30 0 -20 15 8 14 22 14 30 1z m-685 -61 c23 -61 32 -121 20 -139 -6 -10 -4
-20 6 -31 8 -9 22 -44 30 -78 15 -56 15 -64 0 -86 -9 -14 -21 -25 -26 -25 -16
0 -41 32 -47 61 -3 16 -10 32 -14 35 -12 7 -11 61 1 69 13 8 1 67 -17 81 -8 7
-19 29 -24 50 -9 31 -8 39 5 46 9 5 16 19 16 32 0 53 27 45 50 -15z m995 -133
c25 -18 13 -48 -17 -45 -13 2 -28 0 -33 -3 -15 -9 -106 22 -99 33 9 15 71 10
78 -6 8 -21 26 -19 26 3 0 33 16 40 45 18z m-162 -56 c26 -11 49 -25 52 -30 3
-6 18 -10 33 -10 15 0 36 -7 46 -15 11 -8 28 -15 38 -15 31 0 68 -45 68 -82 0
-47 15 -67 29 -40 6 11 11 28 11 37 0 9 5 15 11 13 13 -4 21 -129 9 -149 -8
-12 -15 -11 -46 6 -20 11 -41 30 -47 42 -6 13 -14 23 -19 23 -4 0 -8 6 -8 14
0 16 -72 83 -103 95 -12 5 -51 17 -87 26 -36 9 -73 21 -84 27 -12 7 -39 6 -82
-3 -89 -18 -104 0 -27 30 32 12 72 29 88 36 42 19 66 18 118 -5z m-693 -129
c0 -21 -6 -32 -21 -36 -29 -9 -33 -1 -18 34 18 39 39 40 39 2z m730 -11 c12
-8 12 -10 -3 -16 -9 -3 -25 -3 -34 0 -15 6 -15 8 -3 16 8 6 17 10 20 10 3 0
12 -4 20 -10z m-9 -44 c94 -2 102 -3 119 -26 17 -22 17 -26 3 -34 -10 -5 -27
-3 -48 7 -24 12 -52 14 -112 10 -89 -6 -137 1 -130 20 5 15 48 37 59 30 5 -2
54 -6 109 -7z m-204 -41 c7 -20 6 -21 -48 -28 -32 -4 -52 -2 -65 8 -18 13 -18
14 6 24 40 16 100 13 107 -4z m-44 -70 c1 -5 -17 -13 -41 -16 -23 -3 -48 -11
-54 -17 -17 -17 -111 -16 -106 1 3 6 23 16 46 21 23 5 42 13 42 18 0 12 110 6
113 -7z m457 -30 c0 -8 -7 -15 -15 -15 -8 0 -15 7 -15 15 0 8 7 15 15 15 8 0
15 -7 15 -15z m-1036 -28 c22 -16 17 -50 -8 -55 -10 -2 -33 -1 -52 3 -27 5
-34 11 -34 30 0 35 58 48 94 22z m76 -37 c0 -5 7 -10 15 -10 8 0 15 -8 15 -18
0 -10 7 -27 15 -38 16 -21 20 -64 6 -64 -5 0 -13 -9 -16 -20 -7 -22 -34 -27
-52 -9 -7 7 -6 23 4 52 13 36 13 45 0 67 -15 25 -13 50 4 50 5 0 9 -4 9 -10z
m-581 -9 c16 -11 6 -31 -16 -31 -29 0 -133 -71 -160 -110 -21 -30 -35 -40 -55
-40 -33 0 -38 22 -9 36 25 12 121 103 121 115 0 5 6 9 14 9 8 0 16 7 20 15 6
17 62 20 85 6z m-129 -16 c0 -8 -8 -15 -17 -15 -46 0 -173 -117 -173 -159 0
-11 -11 -32 -24 -48 -23 -27 -28 -28 -135 -31 -130 -5 -136 2 -72 71 l40 42
11 -29 c6 -16 14 -25 19 -20 4 5 23 29 41 54 63 84 108 120 149 120 20 0 46 7
57 15 26 20 104 20 104 0z m284 7 c30 10 43 9 72 -5 19 -9 42 -17 50 -17 9 0
26 -10 39 -22 19 -19 21 -26 12 -47 -16 -38 -45 -65 -102 -96 -27 -14 -65 -37
-84 -51 -18 -13 -38 -21 -43 -18 -5 3 -65 6 -134 6 -99 0 -127 3 -131 14 -3 8
15 40 40 72 64 80 87 102 116 109 14 3 31 13 36 20 17 23 59 40 76 32 9 -4 32
-3 53 3z m340 -43 c20 -12 36 -26 36 -32 0 -25 -18 -40 -41 -34 -13 3 -29 1
-36 -5 -10 -8 -13 -4 -13 18 0 16 -4 36 -9 44 -22 34 12 39 63 9z m619 -54
c-4 -15 -96 -12 -101 3 -3 10 9 12 49 10 30 -2 53 -7 52 -13z m-595 -47 c16
-16 15 -30 -1 -52 -13 -17 -15 -17 -46 -2 -28 15 -31 19 -19 34 27 34 46 40
66 20z m195 -8 c8 -7 -45 -40 -65 -40 -10 0 -11 44 -1 54 8 8 54 -1 66 -14z
m240 -21 c28 -5 55 -5 65 0 27 14 132 1 132 -16 0 -19 -20 -38 -50 -49 -36
-11 -146 -5 -210 13 -30 9 -74 18 -97 20 -24 3 -43 8 -43 12 0 12 15 28 30 33
18 7 108 0 173 -13z m-541 -6 c22 -20 24 -59 2 -67 -22 -8 -64 20 -64 42 0 20
18 42 34 42 5 0 18 -7 28 -17z m-589 1 c7 -7 -27 -66 -53 -89 -11 -10 -20 -24
-20 -32 0 -15 36 -18 45 -3 8 13 295 9 295 -3 0 -4 -7 -21 -15 -37 -14 -28
-11 -60 6 -60 4 0 13 9 19 20 6 11 15 20 20 20 15 0 10 -276 -6 -329 -18 -59
-31 -281 -17 -281 25 0 36 34 38 123 2 50 7 112 12 137 15 67 17 338 3 355
-17 20 11 58 55 74 19 7 35 18 35 25 0 7 13 25 28 40 25 23 31 25 41 12 16
-19 8 -32 -32 -56 -26 -16 -28 -20 -14 -26 10 -3 31 -4 47 -1 16 4 30 2 32 -3
2 -7 16 -6 38 0 31 9 37 7 59 -15 17 -17 26 -37 27 -65 2 -48 -19 -55 -39 -13
l-12 27 -6 -39 c-4 -23 -1 -59 7 -86 17 -58 17 -558 0 -560 -27 -3 -54 4 -84
23 l-34 21 -29 -22 c-23 -17 -37 -21 -62 -16 -18 4 -36 11 -42 15 -5 4 -28 11
-51 14 -31 6 -44 3 -54 -8 -14 -18 -95 -22 -105 -7 -3 5 -19 12 -35 16 l-31 7
7 91 c3 51 9 106 14 122 7 29 13 162 14 320 l1 79 33 10 c52 15 58 1 43 -102
-25 -175 -33 -424 -15 -481 4 -11 7 -12 17 -2 7 7 12 61 14 159 3 153 25 346
43 367 7 9 6 16 -5 25 -9 7 -13 21 -10 30 8 25 -20 46 -40 30 -8 -6 -22 -9
-33 -6 -10 3 -80 7 -155 8 -135 3 -137 3 -137 26 0 14 9 26 24 33 14 7 27 23
31 38 8 31 33 61 52 61 7 0 13 5 13 10 0 11 13 13 23 4z m915 -59 c20 -7 15
-45 -7 -45 -11 0 -23 5 -26 10 -3 6 -17 10 -30 10 -13 0 -27 -4 -30 -10 -3 -5
-15 -10 -26 -10 -21 0 -26 29 -9 46 10 10 96 9 128 -1z m-228 -5 c0 -5 -9 -10
-21 -10 -11 0 -17 5 -14 10 3 6 13 10 21 10 8 0 14 -4 14 -10z m-1422 -62 c3
-13 -3 -18 -22 -18 -20 0 -26 5 -26 21 0 15 5 20 22 17 13 -2 24 -11 26 -20z
m1861 -13 c19 -20 20 -25 7 -25 -23 0 -67 30 -60 41 9 15 28 10 53 -16z m184
-26 c32 -32 22 -45 -19 -24 -16 8 -35 15 -42 15 -19 0 -26 28 -12 45 14 17 22
13 73 -36z m-1898 31 c4 -6 -5 -10 -19 -10 -14 0 -26 5 -26 10 0 6 9 10 19 10
11 0 23 -4 26 -10z m288 1 c26 -1 37 -6 37 -16 0 -19 -31 -26 -100 -21 -30 2
-66 4 -79 5 -22 1 -23 2 -8 19 11 12 29 17 64 15 26 0 65 -1 86 -2z m2430 -26
c12 -17 -2 -52 -34 -85 l-32 -31 -33 32 c-38 37 -45 69 -14 69 11 0 20 4 20
10 0 5 12 16 28 24 27 14 43 10 65 -19z m-3042 -25 c23 0 26 -36 5 -59 -8 -9
-19 -50 -25 -91 -20 -144 -31 -204 -41 -214 -6 -6 -10 -27 -10 -48 0 -32 -7
-45 -40 -77 l-39 -37 -26 23 c-31 29 -31 42 -4 77 21 26 31 73 47 214 4 36 13
67 21 72 9 5 16 31 18 67 6 83 8 86 44 79 18 -3 40 -6 50 -6z m2300 -20 c26
-14 24 -32 -3 -28 -13 2 -24 11 -26 21 -4 20 2 21 29 7z m-1621 -30 c0 -16 -7
-47 -16 -69 -16 -41 -16 -90 1 -94 5 -1 12 11 15 27 3 16 11 31 18 34 10 3 13
-11 11 -66 -3 -72 3 -94 22 -75 11 11 7 155 -6 225 -6 34 -5 38 18 43 61 16
61 15 58 -159 -1 -87 -7 -182 -13 -210 -6 -28 -11 -94 -12 -146 -2 -115 -9
-140 -41 -140 -13 0 -34 10 -45 23 -20 21 -22 21 -34 5 -14 -19 -36 -24 -36
-9 0 5 -9 13 -21 16 -18 6 -20 12 -15 40 4 19 7 101 7 184 0 115 3 159 16 188
12 29 14 57 10 119 -3 45 -3 85 0 88 4 3 19 6 35 6 24 0 28 -4 28 -30z m205
-102 c-4 -73 -10 -153 -15 -178 -12 -59 -12 -261 -1 -279 16 -25 25 35 26 164
0 67 4 123 10 127 5 4 11 73 13 153 l4 146 31 -3 30 -3 -3 -140 c-5 -196 -5
-197 -19 -229 -7 -19 -11 -72 -10 -145 1 -100 -1 -116 -17 -128 -24 -18 -37
-17 -95 8 -53 23 -54 29 -23 104 8 21 12 106 13 280 0 138 1 251 1 253 0 1 14
2 30 2 l30 0 -5 -132z m2063 20 c28 -22 47 -88 37 -125 -9 -28 -9 -28 -13 -3
-2 13 -13 35 -23 49 -10 13 -19 31 -19 40 -1 18 -33 61 -47 61 -9 0 -33 47
-33 64 0 6 17 -7 38 -29 21 -22 48 -48 60 -57z m-531 4 c2 -10 17 -26 34 -37
35 -24 44 -47 29 -76 -14 -26 -22 -18 -45 43 -9 26 -23 49 -31 52 -16 6 -19
36 -3 36 6 0 13 -8 16 -18z m-839 -194 c-2 -24 -7 -43 -13 -43 -5 0 -11 19
-13 43 -3 33 0 42 13 42 13 0 16 -9 13 -42z m1021 10 c9 -25 1 -66 -14 -70 -5
-2 -11 18 -13 45 -3 50 12 64 27 25z m-1017 -100 c8 -23 -7 -143 -17 -143 -11
0 -20 118 -11 141 7 17 22 18 28 2z m-1072 -543 c-14 -17 -40 -20 -40 -6 0 6
10 17 22 26 26 17 37 3 18 -20z m818 29 c21 -6 21 -7 5 -19 -9 -7 -17 -26 -18
-41 0 -19 -6 -30 -17 -32 -12 -2 -18 3 -18 16 0 23 -35 56 -49 47 -6 -3 -11
-14 -11 -23 0 -24 -32 -112 -41 -112 -4 0 -17 12 -28 26 -15 19 -21 41 -21 80
l0 53 48 4 c87 7 127 7 150 1z m525 -43 c0 -18 -8 -40 -17 -50 -9 -10 -16 -23
-16 -30 0 -7 -7 -19 -15 -27 -8 -9 -15 -24 -15 -35 0 -27 -27 -24 -34 5 -6 26
1 56 14 56 8 0 40 62 54 103 10 30 31 13 29 -22z m-333 14 c0 -8 -4 -15 -10
-15 -5 0 -10 7 -10 15 0 8 5 15 10 15 6 0 10 -7 10 -15z m-1071 -17 c19 -23
17 -61 -5 -79 -18 -15 -64 3 -64 26 0 8 -4 15 -10 15 -14 0 -13 33 2 48 19 19
58 14 77 -10z m267 0 c-3 -13 -6 -26 -6 -30 0 -5 -7 -8 -15 -8 -8 0 -15 -9
-15 -19 0 -25 -20 -38 -31 -20 -13 22 -11 30 11 36 12 3 20 14 20 27 0 26 8
36 28 36 10 0 13 -7 8 -22z m-135 -29 c12 -24 -5 -69 -27 -69 -21 0 -42 43
-33 68 11 28 45 29 60 1z m-217 -46 c24 -32 12 -76 -22 -81 -20 -3 -22 0 -22
52 0 63 13 72 44 29z m406 -8 c0 -5 -4 -16 -9 -23 -9 -15 -24 -1 -35 35 -6 20
-5 21 18 10 14 -7 26 -16 26 -22z m-264 -30 c14 -51 48 -61 59 -18 13 52 55
60 55 10 0 -27 -5 -35 -30 -44 -18 -7 -30 -18 -30 -29 0 -20 -28 -54 -44 -54
-6 0 -19 -14 -28 -30 -9 -17 -28 -34 -42 -39 -15 -6 -27 -21 -31 -40 -8 -38
-19 -45 -45 -29 -35 22 -20 78 22 78 11 0 25 14 35 35 12 25 23 35 40 35 16 0
23 6 23 19 0 11 3 26 6 35 5 13 -1 16 -25 16 -29 0 -31 2 -31 35 0 71 47 85
66 20z m644 -55 c0 -30 -13 -40 -25 -20 -8 13 4 50 16 50 5 0 9 -13 9 -30z
m276 10 c20 0 19 -83 -1 -100 -12 -10 -16 -8 -24 13 -5 14 -15 28 -20 32 -12
7 -15 48 -4 59 4 3 13 4 21 1 7 -3 20 -5 28 -5z m-995 -10 c16 0 10 -48 -7
-54 -26 -10 -42 -7 -48 10 -9 22 12 57 31 50 8 -3 19 -6 24 -6z m-88 -52 c34
-41 35 -43 21 -71 -9 -15 -20 -27 -27 -24 -12 4 -48 137 -36 137 4 0 23 -19
42 -42z m857 2 c25 -14 15 -40 -16 -40 -17 0 -24 6 -24 18 0 31 11 37 40 22z
m-596 -44 c14 -27 16 -38 7 -55 -16 -29 -38 -26 -56 9 -18 35 -19 52 -3 68 19
19 32 14 52 -22z m554 -56 c-4 -63 -21 -69 -29 -10 -7 50 -4 60 17 60 12 0 14
-11 12 -50z m-617 -11 c36 -36 0 -99 -38 -67 -27 22 -33 44 -17 66 19 27 29
27 55 1z m1007 -53 c-2 -31 -7 -57 -13 -59 -11 -2 -20 97 -10 121 12 32 26 -6
23 -62z m-890 19 c16 -35 16 -35 -13 -35 -21 0 -25 5 -25 30 0 37 22 40 38 5z
m506 -116 c-3 -5 -12 -9 -20 -9 -14 0 -20 31 -7 44 9 9 34 -24 27 -35z m357
-80 c3 -154 -2 -356 -10 -368 -17 -26 -32 0 -31 52 1 29 -2 67 -5 84 -4 18 -4
41 0 50 4 10 9 67 11 126 2 60 6 113 10 119 13 20 24 -9 25 -63z m-67 -485
l-8 -89 -9 74 c-9 82 -3 131 15 113 6 -6 7 -40 2 -98z m-1254 -344 c9 -17 4
-31 -31 -85 -23 -36 -46 -65 -50 -65 -19 0 -9 91 14 123 36 53 50 58 67 27z
m236 -70 c0 -36 -1 -68 -3 -73 -2 -4 -24 8 -48 25 -24 18 -56 41 -70 51 -24
17 -33 46 -18 61 4 4 36 6 72 4 l65 -3 2 -65z m124 49 c8 -4 23 -10 32 -13 25
-7 4 -44 -49 -84 -23 -18 -43 -40 -43 -48 0 -9 -7 -14 -17 -12 -15 3 -17 14
-14 83 1 44 5 84 8 88 5 9 56 0 83 -14z m-299 -101 c-1 -29 -7 -57 -12 -62 -5
-6 -4 -15 2 -22 21 -25 -2 -34 -81 -31 -43 1 -82 5 -85 9 -4 4 -5 18 -1 32 5
19 11 23 28 19 13 -3 28 -9 33 -14 6 -4 23 -2 39 5 l30 12 -23 20 c-19 19 -20
23 -6 34 8 7 15 18 15 26 0 19 42 46 54 34 5 -5 9 -33 7 -62z m82 -3 c19 -19
37 -42 41 -50 3 -8 15 -15 26 -15 11 0 20 -7 20 -14 0 -12 -6 -13 -27 -7 -16
5 -47 14 -70 20 -42 12 -43 12 -43 56 0 25 4 45 9 45 5 0 25 -16 44 -35z
m1241 -59 c4 -19 13 -36 20 -39 17 -7 26 -50 14 -71 -10 -18 -26 -20 -48 -6
-12 7 -12 12 0 35 13 24 12 28 -3 36 -11 7 -17 22 -17 44 0 46 26 47 34 1z
m-271 7 c24 -7 21 -26 -8 -61 -14 -17 -25 -35 -25 -41 0 -14 -38 -34 -50 -26
-15 9 -12 51 5 65 8 7 17 28 21 47 5 26 10 33 23 27 9 -3 24 -9 34 -11z m365
-25 c30 -66 32 -76 16 -88 -11 -10 -19 -9 -39 4 -20 13 -25 25 -25 55 0 43 8
71 20 71 5 0 17 -19 28 -42z m-1348 -23 c0 -8 -6 -15 -14 -15 -17 0 -28 14
-19 24 12 12 33 6 33 -9z m-208 -50 c14 -6 19 -138 5 -151 -10 -11 -9 -52 2
-56 6 -2 7 -26 3 -58 -6 -48 -10 -56 -35 -64 -45 -16 -50 -2 -38 125 20 218
21 220 63 204z m133 -75 l0 -75 -34 -3 c-18 -2 -38 1 -44 7 -10 10 -10 127 0
144 3 4 21 7 41 5 l37 -3 0 -75z m366 74 c36 -6 37 -7 28 -38 -5 -17 -9 -48
-9 -68 0 -40 -9 -44 -75 -40 -39 2 -65 -8 -65 -27 0 -14 10 -20 46 -25 26 -3
60 -6 76 -6 l29 0 -3 -57 -3 -58 -82 -3 -83 -3 0 63 c0 35 -3 109 -6 166 l-6
102 58 0 c33 0 75 -3 95 -6z m107 -22 c-1 -15 6 -42 15 -61 26 -53 23 -63 -20
-59 l-38 3 -6 65 c-4 36 -5 68 -2 73 2 4 15 7 29 7 20 0 24 -4 22 -28z m-473
-194 c3 -13 4 -41 3 -63 -3 -36 -6 -40 -38 -46 -19 -4 -38 -5 -42 -1 -3 4 -8
31 -9 60 -3 59 6 72 53 72 20 0 29 -6 33 -22z m998 -28 c-7 -92 -27 -102 -36
-18 -5 51 -1 60 23 55 11 -2 14 -13 13 -37z m-525 -140 c18 -31 37 -39 45 -17
3 9 7 9 17 0 18 -17 4 -46 -18 -39 -12 4 -28 -4 -47 -24 -16 -16 -32 -30 -37
-30 -10 0 -11 124 -1 133 13 13 24 7 41 -23z m1152 -369 c0 -14 -18 -23 -30
-16 -6 4 -8 11 -5 16 8 12 35 12 35 0z m1 -52 c83 1 108 -1 112 -12 8 -21 -5
-34 -46 -52 -21 -8 -46 -24 -55 -33 -10 -10 -27 -22 -37 -26 -14 -5 -16 -9 -6
-19 9 -9 19 -7 45 7 45 24 65 12 35 -20 -26 -28 -75 -32 -105 -9 -10 8 -41 15
-67 15 -40 0 -49 4 -56 23 -10 25 8 52 40 62 31 10 23 35 -10 35 -32 0 -46 13
-35 31 4 7 20 8 43 4 20 -4 84 -7 142 -6z"/>
<path d="M2856 4574 c-5 -12 -14 -15 -36 -10 -17 3 -30 1 -30 -4 0 -6 -6 -10
-13 -10 -8 0 -26 -17 -41 -37 -23 -34 -24 -38 -9 -42 10 -2 24 6 31 18 8 11
22 21 31 20 10 0 11 -2 4 -6 -16 -6 -17 -33 -2 -33 7 0 21 10 33 23 28 29 72
57 91 57 24 0 17 20 -11 30 -34 13 -41 13 -48 -6z"/>
<path d="M2948 4538 c-41 -38 -68 -76 -68 -93 0 -13 46 20 75 53 16 19 45 41
63 49 18 7 30 18 27 23 -13 22 -54 8 -97 -32z"/>
<path d="M2999 4268 c-3 -6 -29 -247 -38 -348 -9 -114 -2 -236 14 -233 16 4
24 97 20 232 -3 98 -1 127 11 138 17 17 21 213 4 213 -5 0 -11 -1 -11 -2z"/>
<path d="M3085 4260 c-3 -5 -5 -60 -5 -122 1 -62 1 -122 1 -133 0 -11 -7 -58
-16 -105 -15 -81 -12 -240 4 -240 3 0 12 10 20 22 11 18 15 85 18 300 3 255
-1 312 -22 278z"/>
<path d="M2365 3938 c-16 -53 -36 -286 -25 -293 5 -3 17 7 29 23 20 28 24 73
22 230 -1 47 -16 71 -26 40z"/>
<path d="M3878 5718 c-16 -5 -28 -13 -28 -18 0 -12 80 -31 125 -29 22 1 59 -2
83 -6 51 -9 54 2 10 35 -24 18 -46 24 -97 25 -36 1 -78 -2 -93 -7z"/>
<path d="M6686 5695 c-9 -24 -8 -45 3 -45 14 0 22 30 13 47 -8 13 -10 13 -16
-2z"/>
<path d="M3990 5621 c0 -5 10 -16 23 -24 12 -9 46 -38 76 -66 30 -28 58 -51
63 -51 4 0 8 10 8 23 0 26 -60 97 -81 97 -9 0 -24 7 -35 15 -21 16 -54 20 -54
6z"/>
<path d="M7415 5590 c-3 -5 3 -10 14 -10 12 0 21 5 21 10 0 6 -6 10 -14 10 -8
0 -18 -4 -21 -10z"/>
<path d="M6087 5564 c-13 -13 5 -24 39 -24 19 0 34 4 34 9 0 17 -59 29 -73 15z"/>
<path d="M7375 5559 c-4 -6 -5 -13 -2 -16 7 -7 27 6 27 18 0 12 -17 12 -25 -2z"/>
<path d="M5665 5528 c-10 -6 -33 -14 -49 -17 -16 -4 -31 -12 -34 -19 -6 -18
86 -16 104 3 16 16 60 20 89 9 24 -10 -1 -24 -41 -24 -17 0 -37 -7 -44 -14 -6
-8 -30 -16 -53 -18 -29 -2 -42 -8 -42 -18 0 -12 12 -15 59 -13 33 1 62 7 66
13 3 5 27 14 53 19 26 4 52 13 59 19 7 5 28 13 46 17 46 10 35 29 -19 33 -24
2 -48 7 -53 13 -14 13 -117 11 -141 -3z"/>
<path d="M6170 5530 c0 -5 12 -10 28 -10 21 0 24 2 12 10 -20 13 -40 13 -40 0z"/>
<path d="M7330 5530 c-12 -8 -11 -10 8 -10 12 0 22 5 22 10 0 13 -11 13 -30 0z"/>
<path d="M7280 5495 c0 -8 4 -15 9 -15 5 0 14 7 21 15 10 13 9 15 -9 15 -12 0
-21 -6 -21 -15z"/>
<path d="M7515 5500 c-3 -5 -23 -10 -43 -11 -49 -1 -85 -12 -90 -27 -3 -9 17
-12 72 -12 77 0 126 14 126 36 0 21 -53 33 -65 14z"/>
<path d="M6710 5465 c0 -8 5 -15 10 -15 6 0 10 7 10 15 0 8 -4 15 -10 15 -5 0
-10 -7 -10 -15z"/>
<path d="M7740 5410 c0 -5 18 -14 40 -20 22 -6 40 -15 40 -20 0 -6 9 -10 21
-10 21 0 139 -109 139 -129 0 -6 6 -11 14 -11 9 0 12 8 8 25 -2 14 -8 25 -13
25 -5 0 -9 8 -9 19 0 50 -121 131 -196 131 -24 0 -44 -4 -44 -10z"/>
<path d="M6690 5381 c-14 -27 -13 -51 4 -51 21 0 38 27 31 50 -8 25 -21 26
-35 1z"/>
<path d="M7342 5321 c-19 -12 8 -21 60 -21 37 0 75 -12 140 -45 14 -7 29 -11
31 -8 7 6 -38 53 -50 53 -6 0 -16 7 -23 15 -14 17 -134 21 -158 6z"/>
<path d="M5886 5081 c-3 -5 1 -12 9 -15 20 -7 75 4 75 15 0 12 -77 12 -84 0z"/>
<path d="M6300 5010 c0 -22 24 -59 46 -69 33 -14 43 6 13 27 -12 9 -31 24 -41
34 -10 10 -18 14 -18 8z"/>
<path d="M7895 4990 c-3 -5 6 -12 20 -16 29 -7 41 -1 30 15 -8 14 -42 14 -50
1z"/>
<path d="M6933 4944 c-27 -12 -11 -24 31 -24 63 0 106 -11 106 -26 0 -9 11
-14 30 -14 36 0 40 17 5 26 -14 3 -29 13 -34 22 -9 16 -112 28 -138 16z"/>
<path d="M6280 4931 c0 -5 7 -11 15 -15 9 -3 15 0 15 9 0 8 -7 15 -15 15 -8 0
-15 -4 -15 -9z"/>
<path d="M3490 4895 c-33 -8 -46 -17 -48 -32 -3 -19 1 -21 40 -16 43 6 92 38
82 54 -6 11 -16 10 -74 -6z"/>
<path d="M5342 4873 c-6 -2 -10 -9 -6 -14 8 -14 58 -11 80 6 18 13 16 14 -21
14 -22 0 -46 -3 -53 -6z"/>
<path d="M7190 4844 c0 -18 48 -30 62 -16 12 12 7 15 -39 25 -15 3 -23 0 -23
-9z"/>
<path d="M5267 4844 c-14 -14 -7 -25 13 -22 12 2 21 8 21 13 0 12 -24 18 -34
9z"/>
<path d="M5207 4813 c-14 -13 -6 -24 15 -21 27 4 36 28 11 28 -11 0 -23 -3
-26 -7z"/>
<path d="M7276 4752 c-10 -17 11 -102 25 -102 5 0 9 5 9 10 0 6 5 10 11 10 7
0 9 -10 5 -24 -3 -14 -2 -28 4 -31 5 -3 10 -1 10 4 0 6 5 11 10 11 6 0 5 -8
-2 -20 -10 -16 -10 -26 4 -52 9 -18 22 -50 28 -70 8 -27 15 -35 27 -31 11 5
13 15 8 49 -3 25 -2 45 5 49 12 8 14 55 1 55 -5 0 -15 15 -22 33 -7 17 -31 51
-52 75 -38 40 -60 51 -71 34z"/>
<path d="M6140 4458 c0 -18 51 -68 69 -68 13 -1 13 -2 -1 -11 -15 -8 -17 -19
-11 -72 3 -34 11 -69 18 -77 7 -8 15 -44 18 -80 6 -71 21 -165 32 -192 6 -15
34 -33 40 -26 7 7 -22 158 -32 170 -6 7 -13 42 -16 78 -2 36 -10 93 -17 127
-8 35 -10 66 -7 70 4 3 18 1 32 -5 23 -11 25 -17 25 -75 0 -40 5 -70 15 -83 8
-11 14 -42 15 -76 0 -31 5 -60 10 -63 6 -3 10 -18 10 -33 0 -15 7 -38 15 -52
8 -14 19 -35 24 -47 6 -13 15 -23 21 -23 15 0 12 61 -5 90 -8 14 -14 35 -15
47 0 12 -7 28 -15 37 -9 8 -15 33 -15 58 0 24 -6 70 -13 104 -7 34 -11 66 -9
73 5 14 42 15 42 1 0 -6 25 -22 56 -36 46 -21 54 -28 49 -45 -9 -28 4 -76 22
-83 22 -9 23 -7 8 49 -9 36 -10 54 -2 63 13 17 -20 46 -73 63 -19 6 -39 15
-44 20 -6 5 -20 9 -33 9 -12 0 -26 6 -30 13 -4 7 -34 25 -66 41 -31 16 -60 33
-63 37 -8 13 -54 11 -54 -3z"/>
<path d="M4307 4454 c-11 -11 3 -24 24 -24 12 0 19 5 17 13 -5 14 -31 21 -41
11z"/>
<path d="M5210 4365 c-44 -43 -47 -45 -77 -33 -24 9 -38 9 -55 1 -13 -7 -32
-14 -44 -18 -22 -6 -94 -72 -94 -87 0 -19 63 8 120 52 45 35 90 44 90 20 0
-10 -7 -20 -15 -24 -8 -3 -15 -14 -15 -25 0 -24 -18 -37 -32 -23 -26 26 -183
-126 -164 -157 3 -5 -10 -24 -30 -42 -40 -38 -94 -112 -94 -128 0 -26 40 -7
74 33 20 24 36 48 36 53 0 9 45 53 54 53 13 0 5 -48 -9 -54 -8 -3 -15 -11 -15
-18 0 -7 -7 -26 -15 -41 -8 -16 -17 -50 -21 -78 -4 -27 -10 -49 -15 -49 -12 0
-11 -51 0 -69 7 -10 11 -5 16 18 3 17 13 35 21 39 15 8 24 35 48 139 6 28 15
55 19 59 4 4 7 18 7 31 0 45 19 22 25 -32 4 -30 11 -57 15 -60 17 -10 37 43
44 114 4 43 13 82 21 91 8 9 15 31 15 48 0 22 5 32 15 32 12 0 15 -13 15 -59
0 -33 4 -62 9 -66 15 -8 31 29 31 69 0 19 5 38 10 41 6 3 10 19 10 34 0 15 5
32 12 39 24 24 59 142 42 142 -5 0 -30 -20 -54 -45z m-40 -122 c0 -20 -3 -24
-11 -16 -7 7 -9 19 -6 27 10 24 17 19 17 -11z m-98 -86 c-5 -7 -13 -26 -16
-44 -5 -22 -14 -33 -32 -37 -13 -4 -24 -11 -24 -16 0 -18 -28 -10 -33 9 -3 12
7 27 29 46 19 16 34 34 34 41 0 7 10 20 23 29 20 14 22 14 25 0 2 -9 -1 -21
-6 -28z"/>
<path d="M1453 4281 c-12 -15 -25 -45 -29 -66 -4 -21 -13 -50 -20 -64 -8 -14
-14 -44 -14 -66 0 -65 -19 -83 -82 -77 -44 3 -57 0 -76 -18 -14 -14 -23 -32
-22 -48 3 -45 1 -52 -17 -52 -32 0 -93 -26 -108 -46 -29 -39 -5 -127 39 -138
29 -7 30 -2 12 44 -22 56 -20 69 12 76 55 12 87 27 109 52 17 21 19 29 10 44
-18 28 5 37 74 31 39 -4 59 -2 59 5 0 6 6 17 13 24 12 12 23 56 48 186 5 30
16 64 25 77 12 18 13 28 4 44 -6 12 -12 21 -13 21 -2 0 -13 -13 -24 -29z"/>
<path d="M3477 4267 c-12 -32 -10 -618 2 -630 8 -8 11 -5 12 14 0 13 2 154 5
313 3 264 -2 348 -19 303z"/>
<path d="M3416 4261 c-10 -16 -13 -198 -3 -207 17 -17 27 24 27 106 0 83 -10
124 -24 101z"/>
<path d="M6396 4219 c16 -119 39 -141 39 -38 0 53 -3 64 -23 77 l-23 15 7 -54z"/>
<path d="M1811 4206 c-9 -11 -16 -63 -20 -164 -4 -86 -12 -156 -19 -170 -15
-27 -12 -197 3 -197 6 0 12 42 15 95 6 120 24 121 28 3 1 -49 5 -95 8 -103 11
-30 23 15 29 101 3 46 9 107 14 134 6 28 10 93 10 146 1 54 6 100 12 106 6 6
9 23 6 39 -4 28 -5 28 -12 7 -9 -29 -28 -29 -47 -2 -12 19 -15 20 -27 5z m34
-88 c6 -79 8 -219 2 -224 -3 -3 -11 -3 -17 1 -11 7 -13 249 -2 268 8 15 13 0
17 -45z"/>
<path d="M2066 4213 c-3 -3 -6 -20 -6 -38 0 -17 -7 -40 -15 -51 -10 -13 -14
-44 -15 -97 0 -51 -5 -89 -16 -108 -27 -53 -20 -296 7 -247 8 14 14 64 38 313
4 44 13 90 19 102 22 41 12 150 -12 126z"/>
<path d="M1946 4202 c-2 -4 -8 -56 -12 -115 -6 -92 -5 -107 9 -107 22 0 27 22
27 131 0 87 -8 117 -24 91z"/>
<path d="M1070 4163 c-8 -3 -31 -19 -51 -34 -31 -25 -46 -29 -96 -29 -50 0
-63 -4 -82 -24 -24 -26 -24 -63 1 -113 16 -31 -11 -78 -84 -148 -60 -58 -75
-99 -42 -112 26 -10 111 82 161 176 18 32 16 77 -3 106 -28 42 -13 55 62 55
64 0 70 2 122 43 55 42 56 42 139 42 69 0 83 3 81 15 -5 23 -163 40 -208 23z"/>
<path d="M6440 4017 c0 -51 4 -68 20 -82 28 -26 35 -12 23 43 -7 26 -14 59
-17 75 -11 49 -26 28 -26 -36z"/>
<path d="M3408 3913 c0 -10 0 -27 1 -37 1 -11 -3 -33 -8 -50 -10 -34 9 -151
24 -151 17 0 24 70 14 128 -5 31 -7 62 -4 68 9 14 -3 59 -15 59 -6 0 -11 -8
-12 -17z"/>
<path d="M7421 3811 c-21 -29 -22 -37 -17 -233 3 -112 8 -255 12 -318 3 -73 1
-133 -6 -165 -8 -35 -8 -76 -1 -140 6 -60 6 -140 -1 -241 -11 -148 -6 -230 13
-219 5 4 9 16 9 29 0 13 7 37 16 55 22 44 35 252 24 376 -5 55 -9 272 -8 483
1 255 -2 386 -9 393 -7 7 -17 1 -32 -20z"/>
<path d="M4501 3562 c-7 -13 -7 -22 2 -31 18 -18 -11 -33 -54 -28 -48 6 -62
-3 -54 -35 9 -37 -17 -50 -58 -30 -21 10 -37 12 -55 6 -36 -13 -45 -62 -38
-207 6 -113 5 -119 -14 -124 -26 -7 -25 -24 1 -57 15 -19 19 -34 14 -55 -8
-37 12 -115 36 -137 17 -15 18 -15 25 10 3 14 3 47 0 73 -4 27 -8 66 -9 88
l-2 40 50 -3 c63 -3 95 4 95 23 0 16 -7 18 -95 19 l-60 1 2 45 c1 25 2 87 3
138 l1 92 32 2 c47 2 50 2 74 -6 16 -5 30 1 56 24 39 34 62 38 71 14 6 -15 8
-15 26 1 21 19 67 22 237 16 62 -2 85 -6 91 -18 6 -11 28 -16 71 -18 34 -2 64
-5 67 -8 7 -6 13 -270 7 -280 -3 -4 -11 -3 -18 3 -11 9 -23 8 -50 -1 -27 -10
-43 -11 -65 -2 -38 14 -44 5 -42 -67 0 -30 -1 -63 -5 -74 -8 -28 -23 0 -23 47
0 40 -15 50 -25 17 -8 -26 -26 -25 -47 4 -16 23 -16 25 3 42 16 14 24 16 38 7
23 -14 31 -7 31 26 0 17 11 35 31 51 28 23 31 32 35 97 4 72 -8 129 -26 118
-5 -3 -10 -39 -10 -78 0 -82 -11 -111 -27 -74 -6 13 -9 35 -6 50 3 15 2 35 -1
44 -7 16 -9 15 -26 -7 -15 -19 -22 -22 -31 -13 -16 16 -4 43 21 43 21 0 27 14
10 25 -5 3 -64 6 -130 6 -98 1 -125 -2 -139 -15 -16 -15 -19 -15 -31 -1 -22
27 -31 2 -32 -87 -1 -108 6 -132 33 -117 25 13 49 -4 49 -33 0 -17 -5 -19 -31
-13 -22 5 -34 3 -42 -9 -13 -18 -15 -152 -3 -203 10 -43 40 -45 54 -4 6 16 20
32 31 36 12 3 24 18 27 33 4 15 17 38 30 52 12 14 26 37 29 53 4 15 12 27 19
27 18 -1 46 -26 46 -42 0 -15 19 -40 93 -119 20 -22 37 -45 37 -50 0 -6 15 -9
33 -7 l32 3 -3 55 c-2 30 -5 73 -5 95 l-2 40 70 0 70 0 1 -80 c0 -93 9 -127
32 -123 25 5 36 55 21 100 -8 26 -13 107 -13 256 l-1 217 -72 0 c-80 1 -96 8
-67 29 16 12 16 15 4 20 -24 7 -94 20 -103 17 -28 -6 -251 -19 -262 -15 -8 3
-15 22 -17 42 -3 42 -30 55 -47 24z m194 -227 c0 -15 -6 -19 -24 -17 -31 3
-35 7 -27 27 9 24 51 15 51 -10z m-118 2 c4 -7 20 -18 36 -25 15 -6 32 -23 37
-37 10 -26 40 -35 40 -11 0 7 7 19 16 26 12 11 18 11 30 -2 13 -13 12 -17 -10
-39 -32 -30 -32 -46 -1 -75 14 -13 25 -32 25 -44 0 -16 -6 -20 -35 -20 -31 0
-35 3 -35 26 0 31 -20 28 -35 -4 -11 -24 -51 -30 -58 -9 -7 22 5 47 24 47 29
0 25 51 -6 74 -14 10 -25 29 -25 41 0 14 -7 25 -20 28 -11 3 -20 12 -20 21 0
19 26 21 37 3z m-34 -51 c6 -15 -1 -26 -15 -26 -4 0 -8 9 -8 20 0 23 15 27 23
6z m37 -76 c0 -33 -3 -40 -20 -40 -16 0 -40 26 -40 44 0 10 32 36 46 36 10 0
14 -12 14 -40z m209 -22 c1 -27 -24 -22 -37 7 -9 20 -8 26 6 34 18 10 30 -5
31 -41z m-205 -114 c9 -24 -12 -54 -39 -54 -20 0 -25 5 -25 25 0 37 52 61 64
29z"/>
<path d="M1423 3434 c-4 -11 5 -24 26 -41 39 -30 39 -42 1 -78 -35 -34 -39
-71 -10 -108 11 -14 20 -36 20 -50 0 -13 -9 -34 -20 -47 -21 -24 -27 -60 -10
-60 18 0 60 -51 60 -74 0 -51 -70 -115 -143 -131 -16 -3 -27 -11 -24 -18 5
-16 56 -22 70 -8 6 6 21 11 32 11 12 0 32 9 45 20 13 11 26 20 31 20 16 0 49
73 49 111 0 30 -7 47 -27 67 -23 23 -27 35 -27 92 -1 48 -6 71 -18 83 -20 20
-13 54 13 62 28 9 59 54 59 85 0 55 -109 110 -127 64z"/>
<path d="M2601 3352 c-17 -31 -18 -187 -1 -207 10 -12 10 -21 1 -41 -15 -33
-35 -26 -39 13 -3 26 -6 29 -27 25 -15 -2 -25 -12 -27 -26 -2 -14 -10 -21 -24
-20 -16 0 -20 -5 -16 -23 3 -17 -2 -25 -22 -34 -32 -15 -35 -57 -5 -82 34 -30
22 -67 -29 -94 -8 -4 10 -63 19 -63 5 0 17 17 28 39 11 21 27 41 36 44 25 10
17 53 -16 86 -33 34 -31 51 7 51 19 0 24 5 24 24 0 33 16 42 29 17 16 -28 14
-39 -9 -46 -29 -9 -26 -49 5 -69 14 -9 25 -22 25 -30 0 -7 -11 -19 -25 -26
-14 -7 -25 -21 -25 -30 0 -10 -7 -23 -15 -30 -18 -15 -20 -50 -2 -50 22 0 57
39 57 64 0 24 24 41 41 30 5 -3 9 -15 9 -27 0 -31 15 -53 25 -37 11 18 7 198
-5 221 -7 12 -7 26 -2 37 9 16 13 68 14 215 1 73 -12 104 -31 69z m-3 -366 c2
-10 -1 -23 -7 -29 -16 -16 -34 6 -26 33 8 24 28 22 33 -4z"/>
<path d="M6277 3232 c-25 -5 -20 -31 8 -44 19 -8 31 -8 51 1 16 7 44 9 69 5
47 -7 95 10 77 28 -9 9 -169 17 -205 10z"/>
<path d="M1153 3205 c-18 -7 -52 -32 -77 -56 -39 -35 -46 -47 -46 -79 0 -24 7
-43 20 -55 29 -26 25 -47 -15 -82 -36 -32 -45 -64 -22 -82 6 -6 26 -22 43 -36
18 -14 32 -31 31 -37 -1 -46 6 -70 29 -95 22 -23 34 -28 73 -27 39 0 54 6 84
34 35 31 49 70 27 70 -6 0 -24 -16 -41 -35 -19 -21 -40 -35 -54 -35 -31 0 -67
45 -59 75 10 40 -20 91 -60 105 l-37 12 36 39 c19 21 35 44 35 51 0 7 -12 30
-27 51 l-28 40 40 34 c21 18 51 36 65 39 45 10 90 35 90 49 0 17 -31 35 -57
35 -10 -1 -32 -7 -50 -15z"/>
<path d="M6792 3161 c-15 -26 -18 -49 -17 -129 2 -55 8 -109 14 -121 8 -14 9
-27 3 -34 -12 -17 -15 -198 -3 -230 8 -20 7 -30 -5 -42 -15 -14 -14 -18 9 -39
l26 -24 6 29 c9 42 45 37 59 -8 6 -20 14 -23 57 -23 42 0 54 -4 74 -27 13 -16
27 -47 31 -70 9 -62 20 -45 27 42 8 107 1 142 -32 153 l-26 10 27 7 c34 9 89
-22 106 -60 11 -24 16 -25 88 -25 66 0 75 -2 72 -17 -3 -16 -14 -18 -106 -15
-63 3 -102 0 -102 -6 0 -16 27 -22 101 -22 64 0 69 -2 69 -22 0 -12 -24 -47
-59 -83 -46 -48 -59 -67 -54 -84 3 -12 9 -24 14 -27 13 -8 11 -78 -3 -105 -7
-14 -23 -39 -36 -57 -23 -31 -23 -32 -3 -32 20 0 61 43 61 66 0 7 8 15 19 19
13 4 20 18 24 53 3 26 1 52 -5 59 -19 23 -5 58 25 61 29 4 37 -14 15 -36 -17
-17 -3 -25 21 -12 22 11 30 63 11 75 -15 9 -12 25 4 25 7 0 27 -7 42 -15 16
-8 46 -18 66 -21 44 -8 52 -22 31 -60 -20 -39 -20 -88 0 -108 21 -21 22 -55 3
-82 -12 -17 -12 -22 2 -40 10 -11 30 -28 45 -38 41 -25 33 -54 -26 -86 -47
-24 -48 -25 -78 -7 -38 21 -117 23 -125 3 -3 -8 -17 -22 -31 -31 -24 -16 -26
-16 -41 7 -9 12 -27 33 -41 46 -28 25 -81 30 -81 7 0 -8 6 -15 13 -15 33 -1
137 -123 137 -161 -1 -13 -7 -35 -15 -49 -16 -28 -19 -66 -6 -74 4 -3 35 19
67 49 38 35 64 53 74 49 8 -3 30 -8 48 -11 23 -4 32 -11 30 -22 -4 -19 -65
-28 -81 -12 -12 12 -57 -15 -57 -34 0 -8 -12 -23 -27 -36 -21 -16 -24 -23 -14
-27 8 -3 25 -15 37 -27 16 -16 26 -19 33 -12 13 13 99 -55 112 -90 5 -13 9
-42 9 -64 0 -54 16 -49 30 10 9 37 9 58 0 88 -7 21 -10 50 -8 63 4 34 34 38
42 6 6 -25 37 -42 56 -31 14 9 12 41 -3 57 -8 7 -17 25 -20 39 -4 14 -25 40
-47 58 -22 18 -38 36 -35 42 4 5 24 9 45 9 33 0 44 -6 73 -40 38 -45 57 -51
57 -17 0 41 -69 100 -134 113 -32 6 -40 20 -30 56 8 28 14 32 47 35 48 3 76
34 77 85 0 36 -12 52 -66 84 -17 10 -17 14 -5 36 11 22 11 29 -4 52 -10 14
-21 26 -26 26 -16 0 -9 59 11 92 11 18 20 42 20 53 0 29 -28 65 -49 65 -10 0
-24 7 -31 15 -9 11 -16 13 -24 5 -5 -5 -18 -10 -28 -10 -18 0 -22 9 -19 42 1
9 -3 19 -9 23 -5 3 -10 19 -10 34 0 39 -27 59 -84 64 -43 4 -53 9 -76 41 -43
57 -73 76 -120 76 -36 0 -42 -3 -51 -29 -9 -25 -17 -30 -52 -34 -23 -2 -57
-10 -74 -18 -23 -9 -36 -10 -43 -3 -7 7 -11 102 -11 277 0 157 -4 269 -9 272
-5 3 -18 -8 -28 -24z m248 -576 c0 -16 -35 -21 -44 -6 -8 12 4 21 26 21 10 0
18 -7 18 -15z m310 -659 c6 -8 28 -16 48 -18 32 -3 37 -7 37 -27 0 -22 -9 -28
-65 -49 -83 -30 -83 -30 -87 -12 -2 9 11 30 28 48 37 38 31 54 -12 29 -50 -28
-67 -16 -31 22 20 23 65 27 82 7z m48 -235 c7 0 11 -5 8 -10 -3 -5 -25 -8 -49
-6 -51 4 -49 3 -44 13 4 6 38 7 85 3z m34 -60 c16 -14 -9 -32 -35 -25 -26 6
-35 23 -20 37 7 7 43 0 55 -12z"/>
<path d="M6341 3146 c-21 -23 -22 -30 -23 -278 -1 -156 3 -261 9 -272 20 -36
26 5 24 164 -1 150 0 159 18 165 11 3 35 3 54 0 43 -8 62 11 47 49 -5 15 -10
45 -10 67 0 33 -3 40 -17 37 -14 -3 -18 -14 -18 -58 l0 -55 -35 0 -35 0 -3 73
c-3 69 -2 72 20 72 39 0 50 13 32 38 -19 28 -35 28 -63 -2z"/>
<path d="M3320 3066 c0 -8 5 -18 10 -21 6 -3 10 -19 10 -35 0 -16 -4 -32 -10
-35 -15 -9 -12 -48 5 -71 8 -10 15 -27 15 -37 0 -10 7 -20 15 -23 8 -4 15 -17
15 -30 0 -16 7 -25 23 -29 53 -12 154 -10 176 4 20 13 -5 55 -27 46 -35 -15
-95 -25 -112 -20 -16 5 -16 9 -4 43 13 37 15 39 47 27 28 -11 21 21 -15 66
-17 21 -32 49 -34 61 -1 13 -3 28 -3 33 -1 6 -8 1 -16 -9 -16 -22 -31 -14 -37
19 -4 25 -58 35 -58 11z m75 -130 c12 -25 14 -40 7 -53 -10 -17 -11 -17 -17 0
-4 9 -13 17 -21 17 -9 0 -14 11 -14 28 0 53 22 56 45 8z"/>
<path d="M613 2906 c-13 -13 -23 -28 -23 -34 0 -6 -8 -18 -17 -28 -14 -13 -19
-38 -21 -98 -4 -79 -3 -82 31 -126 19 -25 53 -56 75 -70 68 -42 66 -64 -12
-110 -57 -34 -171 -113 -198 -137 -36 -32 -23 -67 56 -155 41 -46 84 -91 95
-100 25 -21 71 -24 71 -4 0 19 -49 78 -111 133 -79 70 -79 70 -79 87 0 8 10
21 22 27 21 11 34 21 63 47 7 6 18 12 24 12 5 0 16 6 23 13 25 23 73 54 94 61
20 6 23 0 38 -66 9 -40 17 -91 19 -113 2 -45 24 -57 51 -30 29 29 20 89 -26
176 -47 91 -45 110 13 120 45 8 87 26 105 43 22 22 17 79 -11 127 -31 55 -31
89 -1 138 14 21 22 41 19 44 -7 8 -53 -23 -53 -35 0 -5 -9 -21 -20 -35 -11
-14 -20 -41 -20 -60 0 -18 9 -51 20 -73 25 -48 26 -79 3 -86 -10 -3 -32 -13
-49 -21 -31 -16 -31 -16 -96 38 -81 68 -103 106 -102 175 1 44 8 61 38 102 20
27 36 52 36 56 0 15 -37 3 -57 -18z"/>
<path d="M1665 2823 c-14 -15 -25 -37 -25 -48 0 -31 33 -77 73 -105 41 -28 48
-55 15 -66 -12 -3 -32 -17 -46 -29 -29 -27 -25 -45 18 -94 56 -63 31 -106 -54
-95 -51 7 -65 -9 -22 -26 13 -5 27 -14 31 -19 3 -6 23 -11 44 -11 29 0 44 7
66 30 43 45 40 95 -9 143 -40 40 -44 54 -19 64 23 9 63 53 63 69 0 7 -18 34
-40 59 -43 50 -47 66 -25 105 28 51 -27 69 -70 23z"/>
<path d="M5535 2830 c-17 -28 24 -34 99 -13 15 4 16 7 5 14 -19 12 -96 11
-104 -1z"/>
<path d="M1585 2561 c-7 -12 12 -24 25 -16 11 7 4 25 -10 25 -5 0 -11 -4 -15
-9z"/>
<path d="M1156 2508 c-11 -44 -2 -92 46 -238 18 -55 30 -138 32 -220 1 -73 2
-75 26 -75 22 0 26 6 33 45 12 65 12 107 -2 175 -15 76 -53 186 -81 237 -6 10
-10 29 -10 42 0 54 -32 78 -44 34z"/>
<path d="M6762 2494 c-14 -10 -34 -14 -50 -11 -30 6 -66 -9 -57 -24 4 -5 38
-9 76 -9 63 0 70 2 78 23 15 39 -7 49 -47 21z"/>
<path d="M1560 2494 c0 -6 -16 -28 -35 -50 -56 -62 -185 -340 -185 -397 0 -8
-9 -24 -20 -37 -12 -13 -18 -30 -15 -37 2 -8 -5 -33 -17 -56 -19 -38 -22 -40
-32 -23 -36 63 -103 96 -218 111 -26 3 -50 10 -53 16 -8 12 -82 12 -90 -1 -12
-19 -53 -10 -75 17 -25 32 -22 57 8 61 25 4 30 22 6 22 -27 0 -74 -40 -74 -63
0 -25 28 -71 56 -91 15 -12 16 -17 7 -27 -22 -22 -75 2 -98 44 -22 42 -46 45
-55 7 -16 -62 36 -110 119 -110 26 0 56 7 67 15 44 34 130 4 148 -52 3 -10 22
-35 42 -54 33 -32 39 -34 97 -33 34 1 71 3 82 5 16 3 19 -1 17 -21 -1 -14 -5
-49 -8 -77 -5 -39 -3 -53 6 -53 10 0 12 -29 7 -132 -3 -73 -10 -155 -16 -183
-17 -80 -43 -392 -42 -493 l1 -93 -137 2 c-227 3 -273 1 -273 -15 0 -23 46
-27 297 -25 131 1 258 -3 283 -7 35 -7 1223 -12 1315 -6 11 1 58 0 103 -1 73
-2 85 0 94 17 15 28 -6 44 -31 22 -16 -15 -19 -15 -24 -1 -6 13 -67 15 -544
14 -296 -1 -636 -1 -756 -1 l-219 2 8 32 c4 18 7 60 6 93 -1 37 4 68 13 81 17
27 17 36 16 539 -1 430 0 434 45 543 8 18 14 40 14 48 0 9 7 32 16 52 9 21 22
52 30 70 8 18 14 38 14 44 0 6 10 32 21 57 12 25 29 62 38 81 9 19 23 41 32
47 21 16 34 82 20 96 -7 7 -11 7 -11 1z m-470 -546 c19 -10 38 -18 43 -18 4 0
33 -17 63 -37 49 -35 54 -41 51 -73 -2 -35 -2 -35 -46 -32 -41 3 -112 33 -137
57 -6 6 -16 21 -23 33 -14 26 -89 62 -127 62 -28 0 -33 26 -6 33 35 8 148 -7
182 -25z"/>
<path d="M4910 2229 c-16 -7 -157 -10 -382 -10 l-358 1 -16 -26 c-9 -13 -14
-27 -11 -30 3 -3 31 -1 63 5 33 5 231 10 442 10 210 0 403 3 427 7 66 9 58 31
-12 39 -32 3 -74 8 -93 10 -19 2 -46 0 -60 -6z"/>
<path d="M5168 2193 c-8 -10 -18 -30 -22 -45 l-6 -27 -138 -2 c-75 -1 -279 -1
-452 0 -337 1 -480 -5 -480 -20 0 -6 11 -21 25 -35 14 -14 25 -30 25 -36 0 -6
7 -20 16 -29 15 -17 15 -21 1 -42 -18 -27 -13 -94 9 -139 21 -40 31 -42 49 -8
9 17 20 28 25 25 5 -3 18 0 29 7 25 15 42 1 20 -15 -9 -7 -16 -26 -16 -42 0
-17 -1 -216 -2 -443 -1 -445 3 -532 25 -510 16 16 16 38 3 827 -1 96 1 115 15
123 9 5 16 22 16 37 0 16 7 34 15 41 16 13 253 22 260 10 9 -14 -26 -20 -116
-20 -83 0 -111 -9 -73 -24 21 -8 202 -8 384 1 131 6 141 8 110 19 -31 10 -33
13 -15 20 11 5 49 9 85 9 63 0 65 -1 62 -25 -3 -27 31 -90 48 -90 5 0 13 12
16 28 4 15 9 30 11 35 7 13 43 -13 43 -31 0 -10 5 -23 11 -29 7 -7 8 -22 1
-44 -9 -33 -7 -262 2 -324 3 -16 0 -105 -7 -196 -9 -122 -10 -190 -2 -255 l10
-89 156 -2 c85 -1 167 -7 182 -12 22 -8 35 -7 57 4 41 21 96 19 128 -5 29 -22
56 -19 66 6 10 27 -5 44 -40 44 -19 0 -46 7 -59 16 -17 11 -35 14 -57 10 -82
-17 -192 -25 -293 -22 l-110 4 -3 209 c-3 180 -1 211 12 222 19 16 21 81 4
128 -10 27 -10 38 0 53 7 11 12 38 12 60 0 41 9 47 44 34 14 -5 14 -8 -1 -31
-13 -19 -17 -54 -18 -156 -2 -73 -5 -143 -9 -157 -7 -29 16 -125 30 -125 5 0
11 25 14 55 4 43 9 56 24 58 21 5 36 -13 36 -45 0 -12 5 -25 11 -29 15 -9 29
14 29 49 0 24 4 28 23 25 19 -3 23 -11 29 -68 4 -35 5 -67 2 -70 -3 -3 -46 -5
-95 -5 -58 0 -93 -5 -101 -13 -22 -22 7 -30 101 -30 94 0 121 9 121 38 0 10 8
21 18 25 9 3 27 14 40 25 21 17 22 23 13 57 -9 37 -12 101 -12 283 -1 153 2
144 -49 150 -37 4 -46 9 -48 27 -2 12 -14 29 -28 37 -13 9 -24 23 -24 30 0 7
-6 19 -13 25 -8 6 -13 28 -12 48 1 37 2 38 40 38 39 0 40 -1 38 -35 -4 -56 5
-80 29 -80 19 0 20 4 15 51 -4 28 -2 59 3 69 7 13 4 24 -13 42 -12 13 -30 36
-40 51 -19 30 -47 36 -47 11 0 -9 -15 -31 -34 -50 -33 -33 -33 -34 -28 -104 4
-62 8 -74 33 -98 25 -23 29 -35 29 -79 0 -57 -10 -65 -45 -39 -16 11 -17 17
-7 29 11 13 10 16 -8 22 -12 4 -42 5 -68 3 l-47 -3 -7 60 c-6 58 1 105 25 150
6 11 11 55 11 97 1 47 6 82 14 90 18 18 15 45 -8 68 -16 16 -19 28 -13 65 4
36 3 45 -9 45 -8 0 -22 -8 -30 -17z m-283 -114 c5 -6 2 -9 -10 -10 -35 -2
-300 -10 -315 -10 -146 6 -331 5 -352 0 -27 -7 -59 13 -40 25 4 2 93 5 196 5
103 0 190 1 192 3 8 8 320 -4 329 -13z m325 4 c0 -5 -9 -14 -20 -21 -17 -10
-20 -23 -20 -92 0 -76 -1 -81 -24 -90 -13 -5 -26 -14 -28 -21 -6 -19 -58 -2
-58 19 0 34 -33 42 -147 36 -162 -8 -732 -8 -740 -1 -3 4 -1 18 7 31 l13 25
437 3 c241 2 442 6 446 11 14 13 -7 21 -58 22 -32 0 -53 5 -55 13 -3 7 5 12
22 12 17 0 25 5 22 13 -2 6 -16 12 -30 12 -39 -1 -33 23 6 27 70 8 227 8 227
1z m-419 -53 c130 -3 182 -13 118 -24 -19 -4 -43 -6 -54 -5 -31 1 -424 1 -567
-1 -104 -1 -128 1 -128 13 0 7 2 16 4 18 5 4 415 4 627 -1z m694 -429 c8 -14
-16 -61 -32 -61 -22 0 -27 29 -8 50 20 22 31 25 40 11z m-155 -116 c0 -54 0
-55 -30 -55 -28 0 -30 2 -30 39 0 55 8 71 36 71 22 0 24 -4 24 -55z m85 -1 c0
-46 -2 -49 -27 -52 -27 -3 -28 -2 -28 42 0 32 5 48 18 55 28 17 37 7 37 -45z
m66 -131 c-7 -39 -23 -50 -29 -19 -2 10 -1 34 3 54 6 33 8 35 19 20 8 -11 11
-32 7 -55z m-60 27 c5 -8 7 -31 5 -50 -3 -19 -5 -38 -5 -42 -1 -5 -14 -8 -30
-8 -28 0 -30 3 -37 48 l-8 47 -9 -47 c-8 -44 -12 -48 -38 -48 l-29 0 5 58 c2
31 4 58 5 59 0 1 30 1 66 0 44 -2 68 -8 75 -17z"/>
<path d="M7327 2142 c-9 -10 -17 -28 -17 -40 0 -16 -16 -32 -53 -56 -29 -19
-59 -41 -66 -49 -11 -14 -8 -17 23 -23 35 -6 38 -4 108 72 40 42 73 84 73 93
0 24 -48 26 -68 3z"/>
<path d="M2888 1968 c-34 -23 -52 -45 -68 -82 -12 -28 -26 -59 -31 -69 -23
-44 -40 -187 -46 -377 -6 -198 -5 -207 17 -257 22 -52 33 -62 45 -43 8 13 75
13 75 1 0 -15 74 -23 105 -11 42 16 17 35 -48 36 -39 0 -53 4 -55 16 -3 17
-59 30 -68 16 -3 -4 -11 -8 -19 -8 -19 0 -20 395 0 455 7 22 15 57 18 78 10
65 73 182 122 225 25 22 45 42 45 46 0 16 -50 2 -92 -26z"/>
<path d="M3905 1972 c-17 -23 -20 -43 -20 -139 0 -109 0 -112 28 -133 18 -14
27 -31 27 -50 0 -17 7 -33 18 -39 16 -10 16 -12 -2 -26 -22 -17 -46 -4 -46 25
0 22 -19 30 -74 30 -62 0 -66 -15 -66 -234 0 -167 2 -188 22 -232 l21 -49 14
34 c11 25 17 31 26 22 20 -20 29 -12 25 27 -3 35 -1 37 27 40 30 3 31 1 41
-53 5 -31 8 -58 5 -60 -2 -3 -22 -5 -43 -5 -27 0 -38 -4 -36 -12 4 -13 144
-30 161 -21 4 2 7 13 7 24 0 14 -7 19 -30 19 -30 0 -30 1 -30 55 0 65 18 73
43 20 9 -19 21 -35 26 -35 6 0 13 -16 17 -35 8 -43 22 -54 29 -23 8 35 8 48 7
275 -2 242 -4 249 -74 240 -46 -6 -54 5 -44 58 6 29 11 35 31 35 28 0 32 18
13 53 -7 12 -11 34 -9 49 1 16 -5 43 -15 60 -9 18 -19 49 -23 68 -8 47 -47 53
-76 12z m70 -167 c0 -43 -3 -50 -21 -53 -23 -3 -34 19 -34 69 0 32 8 41 35 37
17 -3 20 -10 20 -53z m94 -302 c-1 -60 -2 -126 -1 -149 1 -22 -2 -53 -7 -70
-7 -28 -8 -28 -15 16 -8 53 -26 89 -26 53 0 -12 -5 -34 -10 -48 -9 -23 -13
-25 -25 -15 -8 7 -16 27 -16 44 -1 29 -2 28 -12 -11 -8 -37 -13 -43 -37 -43
-46 0 -62 20 -58 75 l3 50 40 -3 c22 -2 45 -8 52 -13 7 -7 14 -6 18 1 4 6 19
9 35 5 37 -8 43 10 34 107 -7 79 -3 108 16 108 7 0 10 -38 9 -107z m-207 76
c9 -14 24 -21 43 -21 36 0 54 -13 50 -36 -13 -61 -17 -71 -36 -77 -30 -10 -59
21 -59 62 0 37 -22 45 -39 16 -9 -15 -10 -13 -11 14 0 17 -3 38 -6 47 -10 25
41 20 58 -5z m151 -41 c4 -13 -1 -71 -9 -97 -3 -9 -8 -11 -14 -5 -11 12 -23
91 -15 104 9 14 32 12 38 -2z m-185 -168 c0 -36 -3 -76 -7 -90 -7 -24 -7 -24
-14 9 -9 43 -9 149 0 181 l7 25 7 -30 c4 -16 7 -59 7 -95z"/>
<path d="M4969 1798 c-1 -18 -3 -65 -4 -104 -2 -39 -7 -80 -13 -90 -11 -20
-18 -347 -14 -650 2 -168 2 -171 27 -194 29 -27 31 -36 10 -56 -8 -8 -12 -21
-9 -29 4 -8 1 -15 -6 -15 -6 0 -14 9 -17 20 -3 11 -12 20 -20 20 -10 0 -14 -7
-10 -19 6 -25 -33 -36 -90 -25 l-38 7 33 14 c18 7 30 18 26 24 -8 14 -155 9
-174 -6 -27 -22 -71 -23 -114 -4 -56 24 -119 16 -142 -18 -14 -22 -21 -25 -56
-20 -50 7 -62 18 -54 51 8 32 32 34 42 4 6 -20 7 -21 19 -4 10 12 12 39 8 91
-6 80 1 120 17 95 6 -8 10 -31 10 -50 0 -39 15 -69 27 -57 6 7 6 217 -1 287
-2 14 -4 34 -5 45 -2 17 -4 15 -19 -10 l-16 -30 -8 63 c-10 74 3 116 21 69 6
-16 11 -35 11 -43 0 -10 4 -12 13 -7 6 4 27 8 46 8 58 0 68 48 17 79 -13 9
-19 7 -27 -6 -6 -10 -15 -18 -21 -18 -8 0 -9 30 -4 103 9 119 9 110 2 250 -3
60 -3 113 0 118 3 5 20 1 37 -8 26 -14 57 -18 167 -17 81 0 143 5 156 12 20
10 39 60 28 72 -8 7 -77 3 -138 -10 -57 -12 -101 -9 -207 16 -21 5 -30 -1 -52
-29 -26 -34 -26 -35 -28 -235 -2 -186 -9 -250 -23 -212 -3 8 -7 126 -8 263 -2
158 -7 246 -13 245 -9 -3 -11 -105 -15 -890 l0 -98 -29 0 -30 0 3 -60 c1 -33
0 -64 -3 -68 -3 -5 -19 -10 -36 -10 -16 -1 -41 -3 -55 -4 -22 -3 -25 1 -28 31
-2 19 -11 40 -19 46 -17 13 -10 35 11 35 8 0 20 15 27 33 11 26 14 121 12 481
-1 420 -5 487 -28 464 -3 -2 -6 -215 -8 -471 l-2 -467 -27 0 c-55 0 -78 -31
-43 -60 8 -7 15 -25 15 -40 0 -16 5 -30 12 -32 6 -2 8 -10 4 -17 -9 -14 -174
-5 -190 10 -13 12 -63 11 -71 -1 -8 -12 -65 -13 -84 -1 -20 13 -51 -5 -51 -29
0 -11 6 -20 13 -21 6 0 185 1 397 2 212 0 565 1 785 0 220 0 417 2 438 5 61 9
39 29 -34 30 -87 1 -83 -1 -97 45 -11 35 -11 45 2 64 16 25 12 35 -14 35 -10
0 -24 10 -32 22 l-15 22 -39 -20 c-44 -23 -115 -22 -135 2 -9 11 -13 112 -16
366 -3 299 -1 355 12 381 16 32 24 224 10 246 -12 21 -25 11 -26 -21z m-579
-800 c0 -16 -3 -19 -11 -11 -6 6 -8 16 -5 22 11 17 16 13 16 -11z m784 -234
c3 -9 6 -29 6 -45 0 -24 -6 -31 -37 -44 -34 -14 -97 -12 -107 4 -2 3 -6 24 -8
46 l-3 40 65 6 c36 3 68 6 71 7 4 1 10 -5 13 -14z"/>
<path d="M5064 1718 c-5 -7 -10 -119 -12 -248 -1 -129 -7 -279 -12 -334 -5
-58 -6 -106 0 -115 5 -10 12 -45 16 -79 4 -39 11 -61 18 -59 14 5 21 826 7
840 -5 5 -12 3 -17 -5z"/>
<path d="M4856 1712 c-12 -19 -23 -266 -15 -337 4 -38 6 -108 4 -155 -9 -226
-6 -348 11 -430 5 -24 6 -24 17 -5 9 15 11 138 9 464 -3 408 -7 493 -26 463z"/>
<path d="M6870 1650 c-13 -25 -4 -60 16 -60 8 0 14 9 14 19 0 11 5 23 10 26 6
3 10 13 10 21 0 21 -38 17 -50 -6z"/>
<path d="M2420 1369 c0 -24 4 -30 18 -27 10 2 18 14 20 31 3 22 -1 27 -17 27
-17 0 -21 -6 -21 -31z"/>
<path d="M3303 1160 c-30 -12 -29 -38 1 -46 24 -6 86 19 86 35 0 20 -49 26
-87 11z"/>
<path d="M1514 1016 c-9 -36 2 -59 37 -78 40 -23 81 -23 120 1 25 15 43 18 79
14 43 -5 48 -3 73 27 15 17 27 36 27 41 0 13 -17 11 -26 -2 -4 -7 -27 -9 -69
-4 -60 6 -63 5 -94 -25 -38 -39 -61 -36 -84 13 -20 44 -53 51 -63 13z"/>
<path d="M2366 1023 c-3 -3 -6 -16 -6 -28 0 -21 -29 -45 -97 -83 -32 -17 -42
-15 -79 13 -42 32 -56 31 -111 -5 -25 -17 -62 -34 -82 -38 -29 -7 -36 -12 -36
-32 0 -16 9 -29 24 -37 32 -15 64 1 111 56 19 23 40 41 45 41 6 0 21 -13 35
-30 21 -25 32 -30 70 -30 74 0 150 71 150 140 0 29 -12 45 -24 33z"/>
<path d="M2900 685 c12 -15 30 -12 30 6 0 5 -10 9 -21 9 -18 0 -19 -2 -9 -15z"/>
<path d="M2986 675 c-3 -9 0 -15 9 -15 8 0 15 7 15 15 0 8 -4 15 -9 15 -5 0
-11 -7 -15 -15z"/>
<path d="M7552 552 c-51 -1 -90 -7 -87 -11 7 -12 496 -14 513 -2 31 19 -103
23 -426 13z"/>
</g>
</svg>
